<svg xmlns="http://www.w3.org/2000/svg" xmlns:xlink="http://www.w3.org/1999/xlink" xmlns:lucid="lucid" width="1335" height="967"><g transform="translate(-59.5 -99.5)" lucid:page-tab-id="0_0"><path d="M0 0h1870.87v1322.84H0z" fill="#fff"/><path d="M180 106a6 6 0 0 1 6-6h283a6 6 0 0 1 6 6v8a14.48 14.48 0 0 1-4.24 10.24l-1.52 1.52A14.48 14.48 0 0 1 459 130H186a6 6 0 0 1-6-6z" fill="#fff"/><path d="M475 100v20l-10 10H180" stroke="#3a414a" fill="none"/><path d="M180 106a6 6 0 0 1 6-6h1202a6 6 0 0 1 6 6v954a6 6 0 0 1-6 6H186a6 6 0 0 1-6-6zM180 735h20m15 0h20m15 0h20m15 0h20m15 0h20m15 0h20m15 0h20m15 0h20m15 0h20m15 0h20m15 0h20m15 0h20m15 0h20m15 0h20m15 0h20m15 0h20m15 0h20m15 0h20m15 0h20m15 0h20m15 0h20m15 0h20m15 0h20m15 0h20m15 0h20m15 0h20m15 0h20m15 0h20m15 0h20m15 0h20m15 0h20m15 0h20m15 0h20m15 0h20m15 0h20" stroke="#3a414a" fill="none"/><use xlink:href="#a" transform="matrix(1,0,0,1,188,100) translate(0 19.444444444444443)"/><use xlink:href="#b" transform="matrix(1,0,0,1,188,100) translate(53.02469135802469 19.444444444444443)"/><use xlink:href="#c" transform="matrix(1,0,0,1,188,100) translate(115.92592592592592 19.444444444444443)"/><use xlink:href="#d" transform="matrix(1,0,0,1,192,138) translate(0 19.444444444444443)"/><use xlink:href="#e" transform="matrix(1,0,0,1,192,743) translate(0 19.444444444444443)"/><use xlink:href="#f" transform="matrix(1,0,0,1,192,743) translate(71.41975308641975 19.444444444444443)"/><path d="M945.02 808.5A13.32 13.32 0 0 0 955 813h279a6 6 0 0 1 6 6v205a6 6 0 0 1-6 6H460a6 6 0 0 1-6-6V793a6 6 0 0 1 6-6h460a13.32 13.32 0 0 1 9.98 4.5zM454 813h495" stroke="#3a414a" fill="#fff"/><use xlink:href="#g" transform="matrix(1,0,0,1,462,787) translate(0 17.747178819444443)"/><path d="M220 226a6 6 0 0 1 6-6h128a6 6 0 0 1 6 6v68a6 6 0 0 1-6 6H226a6 6 0 0 1-6-6z" stroke="#3a414a" fill-opacity="0"/><use xlink:href="#h" transform="matrix(1,0,0,1,228,228) translate(31.814814814814817 17.77777777777778)"/><use xlink:href="#i" transform="matrix(1,0,0,1,228,228) translate(24.660590277777786 41.45833333333333)"/><path d="M1330.06 287c17.64 0 29.94 5.36 29.94 13.04v53.92c0 3.36-2.16 9.36-16.56 11.92-2.28.4-4.68.72-7.14.88-1.02.08-2.04.16-3.12.16-1.02.08-2.04.08-3.12.08s-2.1 0-3.18-.08c-1.02 0-2.04-.08-3.06-.16-2.46-.16-4.86-.48-7.14-.88-14.52-2.56-16.68-8.56-16.68-11.92v-53.92c0-7.68 12.36-13.04 30.06-13.04zm12.84 75.28c8.52-1.52 13.62-4.64 13.62-8.32v-50.88c-5.22 3.36-15 5.52-26.46 5.52s-21.42-2.16-26.58-5.6v50.96c0 3.6 5.28 6.8 13.74 8.32 2.16.4 4.5.64 6.9.88.96.08 1.92.08 2.94.16 1.98.08 4.02.08 6 0 1.02-.08 1.98-.08 2.94-.16 2.4-.24 4.68-.48 6.9-.88zm-12.84-71.6c-14.88 0-24.6 3.92-26.28 8.08l.06-.08c2.76 3.04 12.18 6.24 26.22 6.24s23.28-3.2 26.16-6.16c-1.68-4.16-11.4-8.08-26.16-8.08z" stroke="#000" stroke-opacity="0" fill="#232f3d"/><use xlink:href="#j" transform="matrix(1,0,0,1,1270,376) translate(5.9912109375 14.9765625)"/><use xlink:href="#k" transform="matrix(1,0,0,1,1270,376) translate(8.574999999999996 33.3755859375)"/><use xlink:href="#l" transform="matrix(1,0,0,1,1270,376) translate(51.525 33.3755859375)"/><path d="M203.12 260H60.5" stroke="#3a414a" fill="none"/><path d="M217.88 260l-14.26 4.63v-9.26z" stroke="#3a414a" fill="#3a414a"/><path d="M60.5 260H60" stroke="#3a414a" fill="none"/><use xlink:href="#m" transform="matrix(1,0,0,1,68.65829282317313,223.1875) translate(0 12.950303819444446)"/><use xlink:href="#n" transform="matrix(1,0,0,1,68.65829282317313,223.1875) translate(46.674262152777786 12.950303819444446)"/><use xlink:href="#o" transform="matrix(1,0,0,1,68.65829282317313,223.1875) translate(0 29.35655381944445)"/><path d="M220 853a6 6 0 0 1 6-6h128a6 6 0 0 1 6 6v68a6 6 0 0 1-6 6H226a6 6 0 0 1-6-6z" stroke="#3a414a" fill-opacity="0"/><use xlink:href="#h" transform="matrix(1,0,0,1,228,855) translate(31.814814814814817 17.77777777777778)"/><use xlink:href="#i" transform="matrix(1,0,0,1,228,855) translate(24.660590277777786 41.45833333333333)"/><path d="M1330.06 918c17.64 0 29.94 5.36 29.94 13.04v53.92c0 3.36-2.16 9.36-16.56 11.92-2.28.4-4.68.72-7.14.88-1.02.08-2.04.16-3.12.16-1.02.08-2.04.08-3.12.08s-2.1 0-3.18-.08c-1.02 0-2.04-.08-3.06-.16-2.46-.16-4.86-.48-7.14-.88-14.52-2.56-16.68-8.56-16.68-11.92v-53.92c0-7.68 12.36-13.04 30.06-13.04zm12.84 75.28c8.52-1.52 13.62-4.64 13.62-8.32v-50.88c-5.22 3.36-15 5.52-26.46 5.52s-21.42-2.16-26.58-5.6v50.96c0 3.6 5.28 6.8 13.74 8.32 2.16.4 4.5.64 6.9.88.96.08 1.92.08 2.94.16 1.98.08 4.02.08 6 0 1.02-.08 1.98-.08 2.94-.16 2.4-.24 4.68-.48 6.9-.88zm-12.84-71.6c-14.88 0-24.6 3.92-26.28 8.08l.06-.08c2.76 3.04 12.18 6.24 26.22 6.24s23.28-3.2 26.16-6.16c-1.68-4.16-11.4-8.08-26.16-8.08z" stroke="#000" stroke-opacity="0" fill="#232f3d"/><use xlink:href="#j" transform="matrix(1,0,0,1,1270,1007) translate(5.9912109375 14.9765625)"/><use xlink:href="#k" transform="matrix(1,0,0,1,1270,1007) translate(8.574999999999996 33.3755859375)"/><use xlink:href="#l" transform="matrix(1,0,0,1,1270,1007) translate(51.525 33.3755859375)"/><path d="M360.5 887h702.62M360.5 887h-.5" stroke="#3a414a" fill="none"/><path d="M1077.88 887l-14.26 4.63v-9.26z" stroke="#3a414a" fill="#3a414a"/><use xlink:href="#p" transform="matrix(1,0,0,1,472.14814814814815,861.6666666666666) translate(0 14.222222222222223)"/><use xlink:href="#q" transform="matrix(1,0,0,1,472.14814814814815,861.6666666666666) translate(52.19753086419753 14.222222222222223)"/><path d="M203.12 887H60.5" stroke="#3a414a" fill="none"/><path d="M217.88 887l-14.26 4.63v-9.26z" stroke="#3a414a" fill="#3a414a"/><path d="M60.5 887H60" stroke="#3a414a" fill="none"/><use xlink:href="#m" transform="matrix(1,0,0,1,61.991628246369935,850.1875) translate(0 12.950303819444446)"/><use xlink:href="#n" transform="matrix(1,0,0,1,61.991628246369935,850.1875) translate(46.674262152777786 12.950303819444446)"/><use xlink:href="#o" transform="matrix(1,0,0,1,61.991628246369935,850.1875) translate(0 29.35655381944445)"/><path d="M1080 853a6 6 0 0 1 6-6h128a6 6 0 0 1 6 6v68a6 6 0 0 1-6 6h-128a6 6 0 0 1-6-6z" stroke="#3a414a" fill-opacity="0"/><use xlink:href="#h" transform="matrix(1,0,0,1,1088,855) translate(31.814814814814817 17.77777777777778)"/><use xlink:href="#r" transform="matrix(1,0,0,1,1088,855) translate(19.3263888888889 41.45833333333333)"/><path d="M1221 887h103a6 6 0 0 1 6 6v8.62" stroke="#3a414a" fill="none"/><path d="M1221 887.48h-.5v-.96h.5z" stroke="#3a414a" stroke-width=".05" fill="#3a414a"/><path d="M1330 916.38l-4.63-14.26h9.27z" stroke="#3a414a" fill="#3a414a"/><use xlink:href="#s" transform="matrix(1,0,0,1,1254.0728829492298,840.3333333333333) translate(0 14.222222222222223)"/><use xlink:href="#t" transform="matrix(1,0,0,1,1254.0728829492298,840.3333333333333) translate(0 35.55555555555556)"/><path d="M945.02 179.5A13.32 13.32 0 0 0 955 184h279a6 6 0 0 1 6 6v191a6 6 0 0 1-6 6H460a6 6 0 0 1-6-6V164a6 6 0 0 1 6-6h460a13.32 13.32 0 0 1 9.98 4.5zM454 184h495" stroke="#3a414a" fill="#fff"/><use xlink:href="#g" transform="matrix(1,0,0,1,462,158) translate(0 17.747178819444443)"/><path d="M360.5 258h335.2M360.5 258h-.5" stroke="#3a414a" fill="none"/><path d="M710.45 258l-14.26 4.63v-9.26z" stroke="#3a414a" fill="#3a414a"/><use xlink:href="#p" transform="matrix(1,0,0,1,490.18305692247634,232.66666666666669) translate(0 14.222222222222223)"/><use xlink:href="#q" transform="matrix(1,0,0,1,490.18305692247634,232.66666666666669) translate(52.19753086419753 14.222222222222223)"/><path d="M1080 224a6 6 0 0 1 6-6h128a6 6 0 0 1 6 6v68a6 6 0 0 1-6 6h-128a6 6 0 0 1-6-6z" stroke="#3a414a" fill-opacity="0"/><use xlink:href="#h" transform="matrix(1,0,0,1,1088,226) translate(31.814814814814817 17.77777777777778)"/><use xlink:href="#r" transform="matrix(1,0,0,1,1088,226) translate(19.3263888888889 41.45833333333333)"/><path d="M1221 258h103a6 6 0 0 1 6 6v6.62" stroke="#3a414a" fill="none"/><path d="M1221 258.48h-.5v-.96h.5z" stroke="#3a414a" stroke-width=".05" fill="#3a414a"/><path d="M1330 285.38l-4.63-14.26h9.27z" stroke="#3a414a" fill="#3a414a"/><use xlink:href="#s" transform="matrix(1,0,0,1,1255.3422997171413,211.33333333333334) translate(0 14.222222222222223)"/><use xlink:href="#t" transform="matrix(1,0,0,1,1255.3422997171413,211.33333333333334) translate(0 35.55555555555556)"/><path d="M637.72 451.3a11.1 11.1 0 0 0 9.28 5.02h206a6 6 0 0 1 6 6v122.63a6 6 0 0 1-6 6H277a6 6 0 0 1-6-6V436.32a6 6 0 0 1 6-6h341a11.1 11.1 0 0 1 9.28 5.02zM271 456.3h370" stroke="#3a414a" fill="#fff"/><use xlink:href="#u" transform="matrix(1,0,0,1,279,430.3157653177735) translate(0 17.747178819444443)"/><path d="M915 559.37a6 6 0 0 1 6-6h338a6 6 0 0 1 6 6v119a6 6 0 0 1-6 6H921a6 6 0 0 1-6-6z" stroke="#3a414a" fill="#fff"/><path d="M915 614.78h350m-350 34.75h350" stroke="#3a414a" fill="none"/><use xlink:href="#v" transform="matrix(1,0,0,1,923,561.368469364453) translate(128.17283950617283 18.073784722222225)"/><use xlink:href="#w" transform="matrix(1,0,0,1,923,561.368469364453) translate(65.65017361111114 41.75434027777778)"/><use xlink:href="#x" transform="matrix(1,0,0,1,923,561.368469364453) translate(118.99218750000003 41.75434027777778)"/><use xlink:href="#y" transform="matrix(1,0,0,1,923,561.368469364453) translate(140.3289930555556 41.75434027777778)"/><use xlink:href="#z" transform="matrix(1,0,0,1,927,622.776455475564) translate(0 14.925347222222221)"/><use xlink:href="#A" transform="matrix(1,0,0,1,927,622.776455475564) translate(96.01562499999997 14.925347222222221)"/><use xlink:href="#B" transform="matrix(1,0,0,1,927,657.526455475564) translate(0 14.925347222222221)"/><use xlink:href="#C" transform="matrix(1,0,0,1,927,657.526455475564) translate(106.68402777777774 14.925347222222221)"/><path d="M915 462.63a6 6 0 0 1 6-6h138a6 6 0 0 1 6 6v68a6 6 0 0 1-6 6H921a6 6 0 0 1-6-6z" stroke="#3a414a" fill-opacity="0"/><use xlink:href="#D" transform="matrix(1,0,0,1,923,464.63153063554705) translate(24.5 17.77777777777778)"/><use xlink:href="#E" transform="matrix(1,0,0,1,923,464.63153063554705) translate(40.32899305555556 41.45833333333333)"/><path d="M773 316.6V415a6 6 0 0 0 6 6h205a6 6 0 0 1 6 6v12.75" stroke="#3a414a" fill="none"/><path d="M773 316.1l.48-.04v.55h-.96v-.54z" stroke="#3a414a" stroke-width=".05" fill="#3a414a"/><path d="M990 454.5l-4.63-14.25h9.26z" stroke="#3a414a" fill="#3a414a"/><use xlink:href="#F" transform="matrix(1,0,0,1,781,327.49244542261215) translate(0 12.950303819444446)"/><use xlink:href="#G" transform="matrix(1,0,0,1,781,327.49244542261215) translate(46.674262152777786 12.950303819444446)"/><use xlink:href="#H" transform="matrix(1,0,0,1,781,327.49244542261215) translate(84.01367187500001 12.950303819444446)"/><use xlink:href="#I" transform="matrix(1,0,0,1,781,327.49244542261215) translate(0 29.35655381944445)"/><path d="M471 330h-1m-4.03 0h-2m-4.03 0h-2m-4.04 0h-2m-4.03 0h-2m-4.04 0h-2m-4.03 0h-2m-4.04 0h-2m-4.03 0h-2m-4.04 0h-2.02m-4.02 0h-2m-4.03 0h-2m-4.04 0h-2.02m-4.02 0h-2m-4.04 0h-2m-4.03 0h-2.02m-4.03 0h-2m-4.03 0h-2m-4.04 0h-2m-4.03 0h-2m-4.03 0h-2m-4.04 0h-2m-4.03 0h-2m-4.04 0h-2m-4.02 0h-2m-4.04 0h-2m-4.03 0h-2m-4.03 0h-2m-4.03 0h-2m-4.03 0h-1l-.78-.06m-2.87-1.2l-.6-.5-.5-.6m-1.2-2.86L290 324v-1.2m0-4.73v-1.2" stroke="#3a414a" fill="none"/><path d="M471.5 330.48h-.5v-.96h.5z" stroke="#3a414a" stroke-width=".05" fill="#3a414a"/><path d="M290 302.12l4.63 14.26h-9.26z" stroke="#3a414a" fill="#3a414a"/><path d="M472 933a6 6 0 0 1 6-6h88a6 6 0 0 1 6 6v74a6 6 0 0 1-6 6h-88a6 6 0 0 1-6-6z" stroke="#3a414a" fill="#fff"/><path d="M562 937h-15v20h15z" stroke="#3a414a" fill="#fff"/><path d="M552 940.33h-10v3.34h10zm0 10h-10v3.34h10z" stroke="#3a414a" fill="#fff"/><use xlink:href="#J" transform="matrix(1,0,0,1,472,927) translate(5.01 25.881510416666664)"/><use xlink:href="#K" transform="matrix(1,0,0,1,472,927) translate(5.01 39.94401041666666)"/><use xlink:href="#L" transform="matrix(1,0,0,1,472,927) translate(5.01 53.999999999999986)"/><use xlink:href="#M" transform="matrix(1,0,0,1,472,927) translate(5.01 68.05598958333331)"/><path d="M471 970h-1m-4.03 0h-2m-4.03 0h-2m-4.04 0h-2m-4.03 0h-2m-4.04 0h-2m-4.03 0h-2m-4.04 0h-2m-4.03 0h-2m-4.04 0h-2.02m-4.02 0h-2m-4.03 0h-2m-4.04 0h-2.02m-4.02 0h-2m-4.04 0h-2m-4.03 0h-2.02m-4.03 0h-2m-4.03 0h-2m-4.04 0h-2m-4.03 0h-2m-4.03 0h-2m-4.04 0h-2m-4.03 0h-2m-4.04 0h-2m-4.02 0h-2m-4.04 0h-2m-4.03 0h-2m-4.03 0h-2m-4.03 0h-2m-4.03 0h-1l-.78-.06m-2.87-1.2l-.6-.5-.5-.6m-1.2-2.86L290 964v-1.12m0-4.47v-2.22m0-4.47v-2.23m0-4.47v-1.12" stroke="#3a414a" fill="none"/><path d="M471.5 970.48h-.5v-.96h.5z" stroke="#3a414a" stroke-width=".05" fill="#3a414a"/><path d="M290 929.12l4.63 14.26h-9.26z" stroke="#3a414a" fill="#3a414a"/><path d="M472 293a6 6 0 0 1 6-6h137a6 6 0 0 1 6 6v74a6 6 0 0 1-6 6H478a6 6 0 0 1-6-6z" stroke="#3a414a" fill="#fff"/><path d="M611 297h-15v20h15z" stroke="#3a414a" fill="#fff"/><path d="M601 300.33h-10v3.34h10zm0 10h-10v3.34h10z" stroke="#3a414a" fill="#fff"/><g><use xlink:href="#N" transform="matrix(1,0,0,1,472,287) translate(5.01 39.990885416666664)"/><use xlink:href="#K" transform="matrix(1,0,0,1,472,287) translate(53.01781249999998 39.990885416666664)"/><use xlink:href="#O" transform="matrix(1,0,0,1,472,287) translate(5.01 54.046874999999986)"/><use xlink:href="#M" transform="matrix(1,0,0,1,472,287) translate(53.01781249999998 54.046874999999986)"/></g><path d="M537 497.05a6 6 0 0 1 6-6h255.75a6 6 0 0 1 6 6v74a6 6 0 0 1-6 6H543a6 6 0 0 1-6-6z" stroke="#3a414a" fill="#fff"/><path d="M794.75 501.05h-15v20h15z" stroke="#3a414a" fill="#fff"/><path d="M784.75 504.4h-10v3.32h10zm0 10h-10v3.32h10z" stroke="#3a414a" fill="#fff"/><g><use xlink:href="#N" transform="matrix(1,0,0,1,537,491.05270404667954) translate(5.01 39.990885416666664)"/><use xlink:href="#K" transform="matrix(1,0,0,1,537,491.05270404667954) translate(53.01781249999998 39.990885416666664)"/><use xlink:href="#P" transform="matrix(1,0,0,1,537,491.05270404667954) translate(5.01 54.046874999999986)"/><use xlink:href="#Q" transform="matrix(1,0,0,1,537,491.05270404667954) translate(109.02692708333329 54.046874999999986)"/></g><path d="M738.6 490.05v-1m0-3.94v-1.96m0-3.95v-2m0-3.94v-1.97m0-3.96v-1.97m0-3.95v-1.98m0-3.95v-2m0-3.94v-1.97m0-3.96v-1.98m0-3.95v-1.96m0-3.95v-2m0-3.94v-1.97m0-3.96v-1.98m0-3.95v-1.96m0-3.95v-2m0-3.94v-1.97m0-3.96v-1.98m0-3.95v-1.96m0-3.95v-2m0-3.94v-1.97m0-3.96v-1.98m0-3.95v-1.96m0-3.95v-2m0-3.94v-1.97m0-3.96v-1.98m0-3.95v-1.96m0-3.95v-1l-.07-.78m-1.2-2.87l-.5-.6-.6-.5m-2.86-1.2l-.78-.05h-1m-3.94 0h-1.98m-3.94 0h-1.97m-3.95 0h-1.97m-3.95 0h-1.97m-3.95 0H702m-3.94 0h-1.97m-3.96 0h-1.97m-3.95 0h-1.97m-3.95 0h-1.97m-3.94 0h-2m-3.93 0h-1.98m-3.95 0h-1.98m-3.94 0h-1.98m-3.94 0h-1.96m-3.95 0h-1.98m-3.95 0h-1" stroke="#3a414a" fill="none"/><path d="M739.07 490.55h-.95v-.5h.95z" stroke="#3a414a" stroke-width=".05" fill="#3a414a"/><path d="M623.12 330l14.26-4.63v9.26z" stroke="#3a414a" fill="#3a414a"/><path d="M303.13 497.05a6 6 0 0 1 6-6h197.75a6 6 0 0 1 6 6v74a6 6 0 0 1-6 6H309.13a6 6 0 0 1-6-6z" stroke="#3a414a" fill="#fff"/><path d="M502.88 501.05h-15v20h15z" stroke="#3a414a" fill="#fff"/><path d="M492.88 504.4h-10v3.32h10zm0 10h-10v3.32h10z" stroke="#3a414a" fill="#fff"/><g><use xlink:href="#N" transform="matrix(1,0,0,1,303.125,491.05270404667954) translate(5.01 39.990885416666664)"/><use xlink:href="#K" transform="matrix(1,0,0,1,303.125,491.05270404667954) translate(53.01781249999998 39.990885416666664)"/><use xlink:href="#O" transform="matrix(1,0,0,1,303.125,491.05270404667954) translate(5.01 54.046874999999986)"/><use xlink:href="#Q" transform="matrix(1,0,0,1,303.125,491.05270404667954) translate(53.01781249999998 54.046874999999986)"/></g><path d="M302.13 534.05h-1.03m-4.1 0h-2.04m-4.1 0h-2.04m-4.1 0h-2.04m-4.1 0h-2.04m-4.1 0h-2.04m-4.1 0h-2.04m-4.1 0h-2.04m-4.1 0H253l-.78-.06m-2.87-1.2l-.6-.5-.5-.6m-1.2-2.87l-.05-.78v-1m0-4.02V521m0-4v-2.02m0-4.02v-2m0-4.03v-2.02m0-4v-2.02m0-4.02v-2m0-4.04v-2m0-4.03v-2.02m0-4.02v-2m0-4.04v-2m0-4.03v-2.02m0-4.02v-2m0-4.04v-2m0-4.03v-2.02m0-4.02v-2m0-4.04v-2m0-4.03v-2.02m0-4.02v-2m0-4.04v-2m0-4.03v-2.02m0-4.02v-2m0-4.04v-2m0-4.03v-2.02m0-4.02v-2m0-4.04v-2m0-4.03v-2.02m0-4.02v-2.02m0-4.02v-2m0-4.03v-2.02m0-4.02v-2m0-4.04v-2m0-4.03v-2.02m0-4.02v-2m0-4.04v-2m0-4.03v-1.02" stroke="#3a414a" fill="none"/><path d="M302.63 534.53h-.52v-.95h.52z" stroke="#3a414a" stroke-width=".05" fill="#3a414a"/><path d="M247 302.12l4.63 14.26h-9.26z" stroke="#3a414a" fill="#3a414a"/><path d="M1081.88 496.63h2.1m4.2 0h4.2m4.2 0h4.2m4.2 0h4.2m4.2 0h4.2m4.2 0h4.2m4.2 0h4.2m4.2 0h4.18m4.2 0h2.1l.94.07.92.23.43.18m3.24 3.24l.17.44.22.9.06.95v2.12m0 4.23v4.23m0 4.24v4.23m0 4.24v4.24m0 4.23v2.12" stroke="#3a414a" fill="none"/><path d="M1067.12 496.63l14.26-4.63v9.27zM1155.06 551.25l-4.63-14.26h9.27z" stroke="#3a414a" fill="#3a414a"/><g><use xlink:href="#R" transform="matrix(1,0,0,1,1167.6976885640747,494.810239685019) translate(0 14.222222222222223)"/><use xlink:href="#S" transform="matrix(1,0,0,1,1167.6976885640747,494.810239685019) translate(0 35.55555555555556)"/></g><path d="M768.65 202.14a6.3 6.3 0 0 1 8.7 0l54.3 51.72a5.7 5.7 0 0 1 0 8.28l-54.3 51.72a6.3 6.3 0 0 1-8.7 0l-54.3-51.72a5.7 5.7 0 0 1 0-8.28z" stroke="#3a414a" fill="#fff"/><g><use xlink:href="#T" transform="matrix(1,0,0,1,715,203) translate(6.177839506172832 58.48003472222222)"/></g><path d="M834.43 258h228.7" stroke="#3a414a" fill="none"/><path d="M834.44 258.48h-.55l.03-.48-.04-.48h.54z" stroke="#3a414a" stroke-width=".05" fill="#3a414a"/><path d="M1077.88 258l-14.26 4.63v-9.26z" stroke="#3a414a" fill="#3a414a"/><g><use xlink:href="#U" transform="matrix(1,0,0,1,840.6770124840568,232.66666666666669) translate(0.005000000000002558 14.222222222222223)"/></g><path d="M836 262.83a6 6 0 0 1 6-6h157.66a6 6 0 0 1 6 6v19.34a6 6 0 0 1-6 6H842a6 6 0 0 1-6-6z" fill="none"/><g><use xlink:href="#V" transform="matrix(1,0,0,1,841,261.8283333333333) translate(0 14.555555555555555)"/><use xlink:href="#W" transform="matrix(1,0,0,1,841,261.8283333333333) translate(69.97530864197532 14.555555555555555)"/><use xlink:href="#X" transform="matrix(1,0,0,1,841,261.8283333333333) translate(117.33333333333334 14.555555555555555)"/></g><defs><path fill="#3a414a" d="M30-248c118-7 216 8 213 122C240-48 200 0 122 0H30v-248zM63-27c89 8 146-16 146-99s-60-101-146-95v194" id="Y"/><path fill="#3a414a" d="M141-36C126-15 110 5 73 4 37 3 15-17 15-53c-1-64 63-63 125-63 3-35-9-54-41-54-24 1-41 7-42 31l-33-3c5-37 33-52 76-52 45 0 72 20 72 64v82c-1 20 7 32 28 27v20c-31 9-61-2-59-35zM48-53c0 20 12 33 32 33 41-3 63-29 60-74-43 2-92-5-92 41" id="Z"/><path fill="#3a414a" d="M59-47c-2 24 18 29 38 22v24C64 9 27 4 27-40v-127H5v-23h24l9-43h21v43h35v23H59v120" id="aa"/><g id="a"><use transform="matrix(0.06172839506172839,0,0,0.06172839506172839,0,0)" xlink:href="#Y"/><use transform="matrix(0.06172839506172839,0,0,0.06172839506172839,15.987654320987653,0)" xlink:href="#Z"/><use transform="matrix(0.06172839506172839,0,0,0.06172839506172839,28.333333333333332,0)" xlink:href="#aa"/><use transform="matrix(0.06172839506172839,0,0,0.06172839506172839,34.50617283950617,0)" xlink:href="#Z"/></g><path fill="#3a414a" d="M30-248c87 1 191-15 191 75 0 78-77 80-158 76V0H30v-248zm33 125c57 0 124 11 124-50 0-59-68-47-124-48v98" id="ab"/><path fill="#3a414a" d="M114-163C36-179 61-72 57 0H25l-1-190h30c1 12-1 29 2 39 6-27 23-49 58-41v29" id="ac"/><path fill="#3a414a" d="M100-194c62-1 85 37 85 99 1 63-27 99-86 99S16-35 15-95c0-66 28-99 85-99zM99-20c44 1 53-31 53-75 0-43-8-75-51-75s-53 32-53 75 10 74 51 75" id="ad"/><path fill="#3a414a" d="M141 0L90-78 38 0H4l68-98-65-92h35l48 74 47-74h35l-64 92 68 98h-35" id="ae"/><path fill="#3a414a" d="M179-190L93 31C79 59 56 82 12 73V49c39 6 53-20 64-50L1-190h34L92-34l54-156h33" id="af"/><g id="b"><use transform="matrix(0.06172839506172839,0,0,0.06172839506172839,0,0)" xlink:href="#ab"/><use transform="matrix(0.06172839506172839,0,0,0.06172839506172839,14.814814814814813,0)" xlink:href="#ac"/><use transform="matrix(0.06172839506172839,0,0,0.06172839506172839,22.160493827160494,0)" xlink:href="#ad"/><use transform="matrix(0.06172839506172839,0,0,0.06172839506172839,34.50617283950617,0)" xlink:href="#ae"/><use transform="matrix(0.06172839506172839,0,0,0.06172839506172839,45.61728395061728,0)" xlink:href="#af"/></g><path fill="#3a414a" d="M185-189c-5-48-123-54-124 2 14 75 158 14 163 119 3 78-121 87-175 55-17-10-28-26-33-46l33-7c5 56 141 63 141-1 0-78-155-14-162-118-5-82 145-84 179-34 5 7 8 16 11 25" id="ag"/><path fill="#3a414a" d="M100-194c63 0 86 42 84 106H49c0 40 14 67 53 68 26 1 43-12 49-29l28 8c-11 28-37 45-77 45C44 4 14-33 15-96c1-61 26-98 85-98zm52 81c6-60-76-77-97-28-3 7-6 17-6 28h103" id="ah"/><path fill="#3a414a" d="M24 0v-261h32V0H24" id="ai"/><path fill="#3a414a" d="M96-169c-40 0-48 33-48 73s9 75 48 75c24 0 41-14 43-38l32 2c-6 37-31 61-74 61-59 0-76-41-82-99-10-93 101-131 147-64 4 7 5 14 7 22l-32 3c-4-21-16-35-41-35" id="aj"/><path fill="#3a414a" d="M24-231v-30h32v30H24zM24 0v-190h32V0H24" id="ak"/><path fill="#3a414a" d="M117-194c89-4 53 116 60 194h-32v-121c0-31-8-49-39-48C34-167 62-67 57 0H25l-1-190h30c1 10-1 24 2 32 11-22 29-35 61-36" id="al"/><g id="c"><use transform="matrix(0.06172839506172839,0,0,0.06172839506172839,0,0)" xlink:href="#ag"/><use transform="matrix(0.06172839506172839,0,0,0.06172839506172839,14.814814814814813,0)" xlink:href="#ah"/><use transform="matrix(0.06172839506172839,0,0,0.06172839506172839,27.160493827160494,0)" xlink:href="#ai"/><use transform="matrix(0.06172839506172839,0,0,0.06172839506172839,32.03703703703704,0)" xlink:href="#ah"/><use transform="matrix(0.06172839506172839,0,0,0.06172839506172839,44.382716049382715,0)" xlink:href="#aj"/><use transform="matrix(0.06172839506172839,0,0,0.06172839506172839,55.49382716049382,0)" xlink:href="#aa"/><use transform="matrix(0.06172839506172839,0,0,0.06172839506172839,61.666666666666664,0)" xlink:href="#ak"/><use transform="matrix(0.06172839506172839,0,0,0.06172839506172839,66.5432098765432,0)" xlink:href="#ad"/><use transform="matrix(0.06172839506172839,0,0,0.06172839506172839,78.88888888888889,0)" xlink:href="#al"/></g><path fill="#3a414a" d="M144-137c-1-29-70-35-71-2 16 41 103 10 103 80C176 9 79 16 32-9 18-17 9-31 4-48l44-6c3 32 80 36 82 1-15-42-103-11-103-82 0-77 157-79 161-8" id="am"/><path fill="#3a414a" d="M114-194c63-2 87 48 72 110H63c-3 28 1 55 31 54 21-1 32-13 37-29l44 13C160-14 137 4 91 4 41 4 11-22 11-73c0-71 33-119 103-121zm30 77c14-47-50-61-67-22-3 6-6 13-8 22h75" id="an"/><path fill="#3a414a" d="M67-101c-8 29-7 73 27 71 23-2 32-16 39-37l48 9C170-19 141 4 91 4 36 4 7-28 12-86c6-75 61-124 140-103 26 7 40 29 43 59l-50 4c-1-20-9-34-29-34-35 0-41 29-49 59" id="ao"/><path fill="#3a414a" d="M69 3c-96 0-34-126-28-193h49L65-57c6 42 62 18 71-6 14-38 17-86 28-127h50L178 0h-47c0-11 4-26 3-33-14 20-30 37-65 36" id="ap"/><path fill="#3a414a" d="M84-151c13-25 34-51 72-40l-8 41C67-170 71-64 56 0H6l36-190h47" id="aq"/><path fill="#3a414a" d="M132-28C118-9 101 4 69 4 30 4 10-23 10-62c0-70 24-129 92-132 31-1 47 14 56 35l19-102h49L179 0h-49zM62-69c0 22 7 39 29 39 45-2 54-45 57-90 2-27-10-40-33-40-44 0-53 48-53 91" id="ar"/><g id="d"><use transform="matrix(0.06172839506172839,0,0,0.06172839506172839,0,0)" xlink:href="#am"/><use transform="matrix(0.06172839506172839,0,0,0.06172839506172839,12.345679012345679,0)" xlink:href="#an"/><use transform="matrix(0.06172839506172839,0,0,0.06172839506172839,24.691358024691358,0)" xlink:href="#ao"/><use transform="matrix(0.06172839506172839,0,0,0.06172839506172839,37.03703703703704,0)" xlink:href="#ap"/><use transform="matrix(0.06172839506172839,0,0,0.06172839506172839,50.55555555555556,0)" xlink:href="#aq"/><use transform="matrix(0.06172839506172839,0,0,0.06172839506172839,59.19753086419753,0)" xlink:href="#an"/><use transform="matrix(0.06172839506172839,0,0,0.06172839506172839,71.54320987654322,0)" xlink:href="#ar"/></g><path fill="#3a414a" d="M156-122c2-23-7-37-28-37-47 0-58 44-58 89 0 24 12 40 36 40 43 0 47-49 50-92zM-8 75l50-265h48c0 10-3 24-3 30 22-50 127-45 121 29-6 73-21 135-92 135-29 0-46-14-55-35L41 75H-8" id="as"/><path fill="#3a414a" d="M87-160c15-17 32-34 63-34 99 1 59 172-1 192-36 12-78 0-87-29L54 0H6l52-261h49zm71 38c0-24-5-37-29-37-46 0-55 46-57 89-1 25 12 40 35 40 44 0 51-50 51-92" id="at"/><path fill="#3a414a" d="M6 0l51-261h49L55 0H6" id="au"/><path fill="#3a414a" d="M50-224l7-37h49l-7 37H50zM6 0l37-190h49L55 0H6" id="av"/><g id="e"><use transform="matrix(0.06172839506172839,0,0,0.06172839506172839,0,0)" xlink:href="#as"/><use transform="matrix(0.06172839506172839,0,0,0.06172839506172839,13.518518518518517,0)" xlink:href="#ap"/><use transform="matrix(0.06172839506172839,0,0,0.06172839506172839,27.037037037037035,0)" xlink:href="#at"/><use transform="matrix(0.06172839506172839,0,0,0.06172839506172839,40.55555555555555,0)" xlink:href="#au"/><use transform="matrix(0.06172839506172839,0,0,0.06172839506172839,46.72839506172839,0)" xlink:href="#av"/><use transform="matrix(0.06172839506172839,0,0,0.06172839506172839,52.901234567901234,0)" xlink:href="#ao"/></g><path fill="#3a414a" d="M87 75C49 33 22-17 22-94c0-76 28-126 65-167h31c-38 41-64 92-64 168S80 34 118 75H87" id="aw"/><path fill="#3a414a" d="M85-194c31 0 48 13 60 33l-1-100h32l1 261h-30c-2-10 0-23-3-31C134-8 116 4 85 4 32 4 16-35 15-94c0-66 23-100 70-100zm9 24c-40 0-46 34-46 75 0 40 6 74 45 74 42 0 51-32 51-76 0-42-9-74-50-73" id="ax"/><path fill="#3a414a" d="M101-234c-31-9-42 10-38 44h38v23H63V0H32v-167H5v-23h27c-7-52 17-82 69-68v24" id="ay"/><path fill="#3a414a" d="M84 4C-5 8 30-112 23-190h32v120c0 31 7 50 39 49 72-2 45-101 50-169h31l1 190h-30c-1-10 1-25-2-33-11 22-28 36-60 37" id="az"/><path fill="#3a414a" d="M33-261c38 41 65 92 65 168S71 34 33 75H2C39 34 66-17 66-93S39-220 2-261h31" id="aA"/><g id="f"><use transform="matrix(0.06172839506172839,0,0,0.06172839506172839,0,0)" xlink:href="#aw"/><use transform="matrix(0.06172839506172839,0,0,0.06172839506172839,7.345679012345679,0)" xlink:href="#ax"/><use transform="matrix(0.06172839506172839,0,0,0.06172839506172839,19.691358024691358,0)" xlink:href="#ah"/><use transform="matrix(0.06172839506172839,0,0,0.06172839506172839,32.03703703703704,0)" xlink:href="#ay"/><use transform="matrix(0.06172839506172839,0,0,0.06172839506172839,38.20987654320988,0)" xlink:href="#Z"/><use transform="matrix(0.06172839506172839,0,0,0.06172839506172839,50.55555555555556,0)" xlink:href="#az"/><use transform="matrix(0.06172839506172839,0,0,0.06172839506172839,62.901234567901234,0)" xlink:href="#ai"/><use transform="matrix(0.06172839506172839,0,0,0.06172839506172839,67.77777777777777,0)" xlink:href="#aa"/><use transform="matrix(0.06172839506172839,0,0,0.06172839506172839,73.9506172839506,0)" xlink:href="#aA"/></g><path fill="#3a414a" d="M1109-360C1066-122 902 20 624 20c-347 0-514-209-514-555 0-353 168-567 518-567 270 0 425 136 473 361l-283 14c-16-106-75-183-196-182-75 0-130 31-165 93s-52 152-52 270c0 249 74 374 221 374 120 0 188-82 201-201" id="aB"/><path fill="#3a414a" d="M616-1102c361 0 521 202 521 560 0 354-171 562-527 562C259 20 92-192 92-542c0-351 169-560 524-560zm-9 930c200-2 236-165 236-370 0-199-27-367-223-367-195 0-233 146-233 367 0 129 18 223 55 282s92 88 165 88" id="aC"/><path fill="#3a414a" d="M934-1102c199 0 220 177 220 381V0H926c-2-260 10-533-4-785-4-72-14-138-83-138-34 0-61 27-81 81s-29 134-29 241V0H501c-2-260 9-533-5-785-4-72-13-138-82-138-46 0-65 47-80 93-21 67-30 155-30 248V0H75c-3-360 6-732-6-1082h209c6 50 3 123 8 175 36-100 83-195 216-195 135 0 166 79 196 196 42-105 93-196 236-196" id="aD"/><path fill="#3a414a" d="M427-171c3 195 2 397 2 596H148V-846c1-83-4-168-8-236h272c10 49 14 118 15 176h4c59-114 151-197 316-197 291 0 385 259 385 560 0 243-65 433-220 521-50 28-109 42-176 42-162-2-253-78-309-191zm69-661c-91 113-92 463-1 586 46 62 145 101 225 54 96-57 118-191 119-351 0-123-18-215-53-276-46-82-128-115-220-74-25 12-48 33-70 61" id="aE"/><path fill="#3a414a" d="M768-1103c247 0 336 167 336 416V0H824v-619c-3-164-24-273-171-273-164 0-229 142-229 312V0H143c-4-359 9-736-8-1082h268c7 63 12 146 13 215h4c67-145 160-236 348-236" id="aF"/><path fill="#3a414a" d="M1113-274C1038-96 884 20 626 20c-352 0-526-209-526-566 0-358 185-556 530-556 358 0 496 251 499 615H395c5 180 68 319 245 319 102 0 186-45 208-129zM857-663c-6-177-128-307-315-247-94 30-141 121-145 247h460" id="aG"/><path fill="#3a414a" d="M711 13c-250 0-386-99-385-349l2-556H161v-190h181l88-282h176v282h385v190H606v530c-10 130 45 186 174 184 91-2 176-11 255-27v186C933-1 833 13 711 13" id="aH"/><path fill="#3a414a" d="M622-916c-112 2-200 14-200 111 0 90 89 101 168 121 234 58 514 77 514 368C1104-4 751 54 434 5 267-21 161-112 121-270l247-37c24 111 113 145 252 141 114-3 226-12 226-124 0-101-103-113-192-134-225-54-490-76-490-351 0-247 201-328 458-328 245 0 413 88 457 292l-249 26c-16-98-92-133-208-131" id="aI"/><path fill="#3a414a" d="M89 20l821-1504h228L321 20H89" id="aJ"/><path fill="#3a414a" d="M1028 0H784c-56-191-119-378-170-573C562-377 495-191 437 0H194L11-1082h228c32 239 67 472 95 714 4 40 7 80 7 119 53-195 119-378 177-568h193c56 190 120 371 169 568-1-79 11-158 21-226l91-607h226" id="aK"/><path fill="#3a414a" d="M-5 220v-96h1238v96H-5" id="aL"/><path fill="#3a414a" d="M471 20c-247 0-336-169-336-415v-687h281v607c4 148 31 285 172 285 152 0 207-150 207-312v-580h281c4 359-9 736 8 1082H816c-7-63-11-146-12-215h-5C736-76 644 20 471 20" id="aM"/><path fill="#3a414a" d="M324-409v-244h580v244H324" id="aN"/><path fill="#3a414a" d="M774 0H438L31-1082h297c94 290 200 568 280 872 83-304 194-581 291-872h294" id="aO"/><path fill="#3a414a" d="M794-190h353V0H118v-190h395v-1104H223v-190h571v1294" id="aP"/><g id="g"><use transform="matrix(0.007595486111111111,0,0,0.007595486111111111,0,0)" xlink:href="#aB"/><use transform="matrix(0.007595486111111111,0,0,0.007595486111111111,9.334852430555555,0)" xlink:href="#aC"/><use transform="matrix(0.007595486111111111,0,0,0.007595486111111111,18.66970486111111,0)" xlink:href="#aD"/><use transform="matrix(0.007595486111111111,0,0,0.007595486111111111,28.004557291666664,0)" xlink:href="#aE"/><use transform="matrix(0.007595486111111111,0,0,0.007595486111111111,37.33940972222222,0)" xlink:href="#aC"/><use transform="matrix(0.007595486111111111,0,0,0.007595486111111111,46.67426215277778,0)" xlink:href="#aF"/><use transform="matrix(0.007595486111111111,0,0,0.007595486111111111,56.009114583333336,0)" xlink:href="#aG"/><use transform="matrix(0.007595486111111111,0,0,0.007595486111111111,65.34396701388889,0)" xlink:href="#aF"/><use transform="matrix(0.007595486111111111,0,0,0.007595486111111111,74.67881944444444,0)" xlink:href="#aH"/><use transform="matrix(0.007595486111111111,0,0,0.007595486111111111,84.013671875,0)" xlink:href="#aI"/><use transform="matrix(0.007595486111111111,0,0,0.007595486111111111,93.34852430555556,0)" xlink:href="#aJ"/><use transform="matrix(0.007595486111111111,0,0,0.007595486111111111,102.68337673611111,0)" xlink:href="#aK"/><use transform="matrix(0.007595486111111111,0,0,0.007595486111111111,112.01822916666667,0)" xlink:href="#aE"/><use transform="matrix(0.007595486111111111,0,0,0.007595486111111111,121.35308159722223,0)" xlink:href="#aI"/><use transform="matrix(0.007595486111111111,0,0,0.007595486111111111,130.68793402777777,0)" xlink:href="#aL"/><use transform="matrix(0.007595486111111111,0,0,0.007595486111111111,140.02278645833331,0)" xlink:href="#aC"/><use transform="matrix(0.007595486111111111,0,0,0.007595486111111111,149.35763888888886,0)" xlink:href="#aM"/><use transform="matrix(0.007595486111111111,0,0,0.007595486111111111,158.6924913194444,0)" xlink:href="#aH"/><use transform="matrix(0.007595486111111111,0,0,0.007595486111111111,168.02734374999994,0)" xlink:href="#aE"/><use transform="matrix(0.007595486111111111,0,0,0.007595486111111111,177.3621961805555,0)" xlink:href="#aM"/><use transform="matrix(0.007595486111111111,0,0,0.007595486111111111,186.69704861111103,0)" xlink:href="#aH"/><use transform="matrix(0.007595486111111111,0,0,0.007595486111111111,196.03190104166657,0)" xlink:href="#aI"/><use transform="matrix(0.007595486111111111,0,0,0.007595486111111111,205.36675347222211,0)" xlink:href="#aN"/><use transform="matrix(0.007595486111111111,0,0,0.007595486111111111,214.70160590277766,0)" xlink:href="#aO"/><use transform="matrix(0.007595486111111111,0,0,0.007595486111111111,224.0364583333332,0)" xlink:href="#aC"/><use transform="matrix(0.007595486111111111,0,0,0.007595486111111111,233.37131076388874,0)" xlink:href="#aP"/><use transform="matrix(0.007595486111111111,0,0,0.007595486111111111,242.7061631944443,0)" xlink:href="#aM"/><use transform="matrix(0.007595486111111111,0,0,0.007595486111111111,252.04101562499983,0)" xlink:href="#aD"/><use transform="matrix(0.007595486111111111,0,0,0.007595486111111111,261.3758680555554,0)" xlink:href="#aG"/></g><path fill="#3a414a" d="M135-194c53 0 70 44 70 98 0 56-19 98-73 100-31 1-45-17-59-34 3 33 2 69 2 105H25l-1-265h48c2 10 0 23 3 31 11-24 29-35 60-35zM114-30c33 0 39-31 40-66 0-38-9-64-40-64-56 0-55 130 0 130" id="aQ"/><path fill="#3a414a" d="M135-150c-39-12-60 13-60 57V0H25l-1-190h47c2 13-1 29 3 40 6-28 27-53 61-41v41" id="aR"/><path fill="#3a414a" d="M110-194c64 0 96 36 96 99 0 64-35 99-97 99-61 0-95-36-95-99 0-62 34-99 96-99zm-1 164c35 0 45-28 45-65 0-40-10-65-43-65-34 0-45 26-45 65 0 36 10 65 43 65" id="aS"/><path fill="#3a414a" d="M144 0l-44-69L55 0H2l70-98-66-92h53l41 62 40-62h54l-67 91 71 99h-54" id="aT"/><path fill="#3a414a" d="M123 10C108 53 80 86 19 72V37c35 8 53-11 59-39L3-190h52l48 148c12-52 28-100 44-148h51" id="aU"/><g id="h"><use transform="matrix(0.06172839506172839,0,0,0.06172839506172839,0,0)" xlink:href="#aQ"/><use transform="matrix(0.06172839506172839,0,0,0.06172839506172839,13.518518518518517,0)" xlink:href="#aR"/><use transform="matrix(0.06172839506172839,0,0,0.06172839506172839,22.160493827160494,0)" xlink:href="#aS"/><use transform="matrix(0.06172839506172839,0,0,0.06172839506172839,35.67901234567901,0)" xlink:href="#aT"/><use transform="matrix(0.06172839506172839,0,0,0.06172839506172839,48.02469135802469,0)" xlink:href="#aU"/></g><path fill="#3a414a" d="M891-1484c-201 251-362 514-362 954 0 441 161 704 362 955H701C500 176 342-90 342-532c0-440 159-704 359-952h190" id="aV"/><path fill="#3a414a" d="M706-1102c241 0 344 136 343 381V0H868v-695c1-168-57-273-220-268-190 6-283 138-283 336V0H185c-3-360 6-732-6-1082h170c4 54 7 126 8 185h3c63-121 164-204 346-205" id="aW"/><path fill="#3a414a" d="M1048-32c-2 300-135 456-433 456-222-1-358-88-400-267l184-25c22 99 100 157 222 156 184-2 248-125 248-315 0-64 3-133-2-194C807-100 706-13 524-12c-306 0-381-228-381-537 0-318 85-550 400-550 164 0 271 83 325 202h3c1-60 3-134 12-185h171c-13 339-4 702-6 1050zM585-145c210-8 284-178 284-406 0-192-52-331-177-392-33-16-69-22-104-22-223 2-259 184-259 414 0 229 31 415 256 406" id="aX"/><path fill="#3a414a" d="M745-142h380V0H143v-142h422v-798H246v-142h499v940zM545-1292v-192h200v192H545" id="aY"/><path fill="#3a414a" d="M932 0L611-444 288 0H94l415-556-397-526h199l300 421 298-421h201L713-558 1133 0H932" id="aZ"/><path fill="#3a414a" d="M528-1484c201 248 357 511 357 952 0 442-156 709-357 957H336C537 174 700-89 700-530c0-440-163-703-364-954h192" id="ba"/><g id="i"><use transform="matrix(0.008680555555555554,0,0,0.008680555555555554,0,0)" xlink:href="#aV"/><use transform="matrix(0.008680555555555554,0,0,0.008680555555555554,10.668402777777777,0)" xlink:href="#aW"/><use transform="matrix(0.008680555555555554,0,0,0.008680555555555554,21.336805555555554,0)" xlink:href="#aX"/><use transform="matrix(0.008680555555555554,0,0,0.008680555555555554,32.00520833333333,0)" xlink:href="#aY"/><use transform="matrix(0.008680555555555554,0,0,0.008680555555555554,42.67361111111111,0)" xlink:href="#aW"/><use transform="matrix(0.008680555555555554,0,0,0.008680555555555554,53.342013888888886,0)" xlink:href="#aZ"/><use transform="matrix(0.008680555555555554,0,0,0.008680555555555554,64.01041666666666,0)" xlink:href="#ba"/></g><path d="M1018 0H814c-67-224-138-444-200-673C552-442 476-224 407 0H204L21-1082h178c43 310 105 601 126 933 54-225 128-425 193-638h193c63 212 134 415 185 638 22-336 90-622 136-933h176" id="bb"/><path d="M698-1104c312 3 392 244 392 558 0 315-82 566-392 566-169 0-277-65-331-184h-5c8 188 2 394 4 589H185V-858c0-76-1-156-6-224h175c6 52 9 120 10 178h4c58-122 150-202 330-200zm-49 991c225 0 255-203 255-433 0-225-32-419-253-419-236 0-285 192-285 441 0 237 53 411 283 411" id="bc"/><path d="M873-819c-18-114-119-146-250-146-163 0-245 50-245 151 0 151 170 148 294 185 182 54 388 94 388 320 0 240-189 325-439 329-245 4-410-69-454-268l159-31c24 133 136 168 295 165 144-2 270-31 270-171 0-164-195-160-331-202-167-52-350-87-350-299 0-218 173-315 413-313 220 2 373 77 412 260" id="bd"/><path d="M615-1102c343 0 484 203 482 560-1 347-147 562-488 562-336 0-475-219-479-562-4-349 156-560 485-560zm-8 989c240 0 301-180 301-429 0-245-55-427-290-427-236 0-299 181-299 427 0 243 61 429 288 429" id="be"/><path d="M528 20c-247 0-343-132-343-381v-721h180v686c-4 177 45 284 224 277 194-8 279-136 279-336v-627h181c3 360-6 732 6 1082H885c-4-54-7-126-8-185h-3C809-64 714 20 528 20" id="bf"/><path d="M682 16c-209 0-323-80-324-285v-671H190v-142h170l58-282h120v282h432v142H538v652c2 114 60 155 182 155 106 0 209-16 297-34v137C921-4 806 16 682 16" id="bg"/><g id="j"><use transform="matrix(0.0087890625,0,0,0.0087890625,0,0)" xlink:href="#bb"/><use transform="matrix(0.0087890625,0,0,0.0087890625,10.8017578125,0)" xlink:href="#bc"/><use transform="matrix(0.0087890625,0,0,0.0087890625,21.603515625,0)" xlink:href="#bd"/><use transform="matrix(0.0087890625,0,0,0.0087890625,32.4052734375,0)" xlink:href="#be"/><use transform="matrix(0.0087890625,0,0,0.0087890625,43.20703125,0)" xlink:href="#bf"/><use transform="matrix(0.0087890625,0,0,0.0087890625,54.0087890625,0)" xlink:href="#bg"/><use transform="matrix(0.0087890625,0,0,0.0087890625,64.810546875,0)" xlink:href="#bc"/><use transform="matrix(0.0087890625,0,0,0.0087890625,75.6123046875,0)" xlink:href="#bf"/><use transform="matrix(0.0087890625,0,0,0.0087890625,86.4140625,0)" xlink:href="#bg"/><use transform="matrix(0.0087890625,0,0,0.0087890625,97.2158203125,0)" xlink:href="#bd"/></g><path d="M30-248c118-7 216 8 213 122C240-48 200 0 122 0H30v-248zM63-27c89 8 146-16 146-99s-60-101-146-95v194" id="bh"/><path d="M141-36C126-15 110 5 73 4 37 3 15-17 15-53c-1-64 63-63 125-63 3-35-9-54-41-54-24 1-41 7-42 31l-33-3c5-37 33-52 76-52 45 0 72 20 72 64v82c-1 20 7 32 28 27v20c-31 9-61-2-59-35zM48-53c0 20 12 33 32 33 41-3 63-29 60-74-43 2-92-5-92 41" id="bi"/><path d="M59-47c-2 24 18 29 38 22v24C64 9 27 4 27-40v-127H5v-23h24l9-43h21v43h35v23H59v120" id="bj"/><g id="k"><use transform="matrix(0.05,0,0,0.05,0,0)" xlink:href="#bh"/><use transform="matrix(0.05,0,0,0.05,12.950000000000001,0)" xlink:href="#bi"/><use transform="matrix(0.05,0,0,0.05,22.950000000000003,0)" xlink:href="#bj"/><use transform="matrix(0.05,0,0,0.05,27.950000000000003,0)" xlink:href="#bi"/></g><path d="M137 0h-34L2-248h35l83 218 83-218h36" id="bk"/><path d="M100-194c62-1 85 37 85 99 1 63-27 99-86 99S16-35 15-95c0-66 28-99 85-99zM99-20c44 1 53-31 53-75 0-43-8-75-51-75s-53 32-53 75 10 74 51 75" id="bl"/><path d="M24 0v-261h32V0H24" id="bm"/><path d="M84 4C-5 8 30-112 23-190h32v120c0 31 7 50 39 49 72-2 45-101 50-169h31l1 190h-30c-1-10 1-25-2-33-11 22-28 36-60 37" id="bn"/><path d="M210-169c-67 3-38 105-44 169h-31v-121c0-29-5-50-35-48C34-165 62-65 56 0H25l-1-190h30c1 10-1 24 2 32 10-44 99-50 107 0 11-21 27-35 58-36 85-2 47 119 55 194h-31v-121c0-29-5-49-35-48" id="bo"/><path d="M100-194c63 0 86 42 84 106H49c0 40 14 67 53 68 26 1 43-12 49-29l28 8c-11 28-37 45-77 45C44 4 14-33 15-96c1-61 26-98 85-98zm52 81c6-60-76-77-97-28-3 7-6 17-6 28h103" id="bp"/><g id="l"><use transform="matrix(0.05,0,0,0.05,0,0)" xlink:href="#bk"/><use transform="matrix(0.05,0,0,0.05,11,0)" xlink:href="#bl"/><use transform="matrix(0.05,0,0,0.05,21,0)" xlink:href="#bm"/><use transform="matrix(0.05,0,0,0.05,24.95,0)" xlink:href="#bn"/><use transform="matrix(0.05,0,0,0.05,34.95,0)" xlink:href="#bo"/><use transform="matrix(0.05,0,0,0.05,49.900000000000006,0)" xlink:href="#bp"/></g><path fill="#333" d="M796 0v-574H433V0H138v-1349h295v531h363v-531h295V0H796" id="bq"/><path fill="#333" d="M762-1121V0H467v-1121H61v-228h1107v228H762" id="br"/><path fill="#333" d="M616-1349c316 3 526 118 526 426 0 301-201 442-514 447H431V0H136v-1349h480zm-25 646c164 1 254-62 254-215 0-157-99-200-262-202H431v417h160" id="bs"/><g id="m"><use transform="matrix(0.007595486111111112,0,0,0.007595486111111112,0,0)" xlink:href="#bq"/><use transform="matrix(0.007595486111111112,0,0,0.007595486111111112,9.334852430555557,0)" xlink:href="#br"/><use transform="matrix(0.007595486111111112,0,0,0.007595486111111112,18.669704861111114,0)" xlink:href="#br"/><use transform="matrix(0.007595486111111112,0,0,0.007595486111111112,28.00455729166667,0)" xlink:href="#bs"/></g><path fill="#333" d="M650-216c90 0 157-35 208-74v-235H584v-218h544v558C1004-84 858 20 635 20 235 20 80-276 80-681c0-416 146-689 558-689 277 0 398 160 462 375l-274 54c-31-108-73-197-185-197-231 0-262 217-262 457 0 149 22 263 67 344s113 121 204 121" id="bt"/><path fill="#333" d="M137 0v-1349h968v228H432v324h612v228H432v341h714V0H137" id="bu"/><g id="n"><use transform="matrix(0.007595486111111112,0,0,0.007595486111111112,0,0)" xlink:href="#bt"/><use transform="matrix(0.007595486111111112,0,0,0.007595486111111112,9.334852430555557,0)" xlink:href="#bu"/><use transform="matrix(0.007595486111111112,0,0,0.007595486111111112,18.669704861111114,0)" xlink:href="#br"/></g><path fill="#333" d="M89 20l821-1504h228L321 20H89" id="bv"/><path fill="#333" d="M1028 0H784c-56-191-119-378-170-573C562-377 495-191 437 0H194L11-1082h228c32 239 67 472 95 714 4 40 7 80 7 119 53-195 119-378 177-568h193c56 190 120 371 169 568-1-79 11-158 21-226l91-607h226" id="bw"/><path fill="#333" d="M427-171c3 195 2 397 2 596H148V-846c1-83-4-168-8-236h272c10 49 14 118 15 176h4c59-114 151-197 316-197 291 0 385 259 385 560 0 243-65 433-220 521-50 28-109 42-176 42-162-2-253-78-309-191zm69-661c-91 113-92 463-1 586 46 62 145 101 225 54 96-57 118-191 119-351 0-123-18-215-53-276-46-82-128-115-220-74-25 12-48 33-70 61" id="bx"/><path fill="#333" d="M622-916c-112 2-200 14-200 111 0 90 89 101 168 121 234 58 514 77 514 368C1104-4 751 54 434 5 267-21 161-112 121-270l247-37c24 111 113 145 252 141 114-3 226-12 226-124 0-101-103-113-192-134-225-54-490-76-490-351 0-247 201-328 458-328 245 0 413 88 457 292l-249 26c-16-98-92-133-208-131" id="by"/><path fill="#333" d="M616-1102c361 0 521 202 521 560 0 354-171 562-527 562C259 20 92-192 92-542c0-351 169-560 524-560zm-9 930c200-2 236-165 236-370 0-199-27-367-223-367-195 0-233 146-233 367 0 129 18 223 55 282s92 88 165 88" id="bz"/><path fill="#333" d="M471 20c-247 0-336-169-336-415v-687h281v607c4 148 31 285 172 285 152 0 207-150 207-312v-580h281c4 359-9 736 8 1082H816c-7-63-11-146-12-215h-5C736-76 644 20 471 20" id="bA"/><path fill="#333" d="M711 13c-250 0-386-99-385-349l2-556H161v-190h181l88-282h176v282h385v190H606v530c-10 130 45 186 174 184 91-2 176-11 255-27v186C933-1 833 13 711 13" id="bB"/><g id="o"><use transform="matrix(0.007595486111111112,0,0,0.007595486111111112,0,0)" xlink:href="#bv"/><use transform="matrix(0.007595486111111112,0,0,0.007595486111111112,9.334852430555557,0)" xlink:href="#bw"/><use transform="matrix(0.007595486111111112,0,0,0.007595486111111112,18.669704861111114,0)" xlink:href="#bx"/><use transform="matrix(0.007595486111111112,0,0,0.007595486111111112,28.00455729166667,0)" xlink:href="#by"/><use transform="matrix(0.007595486111111112,0,0,0.007595486111111112,37.33940972222223,0)" xlink:href="#bz"/><use transform="matrix(0.007595486111111112,0,0,0.007595486111111112,46.674262152777786,0)" xlink:href="#bA"/><use transform="matrix(0.007595486111111112,0,0,0.007595486111111112,56.00911458333334,0)" xlink:href="#bB"/><use transform="matrix(0.007595486111111112,0,0,0.007595486111111112,65.3439670138889,0)" xlink:href="#bx"/><use transform="matrix(0.007595486111111112,0,0,0.007595486111111112,74.67881944444446,0)" xlink:href="#bA"/><use transform="matrix(0.007595486111111112,0,0,0.007595486111111112,84.01367187500001,0)" xlink:href="#bB"/><use transform="matrix(0.007595486111111112,0,0,0.007595486111111112,93.34852430555557,0)" xlink:href="#by"/></g><path fill="#333" d="M135-194c87-1 58 113 63 194h-50c-7-57 23-157-34-157-59 0-34 97-39 157H25l-1-190h47c2 12-1 28 3 38 12-26 28-41 61-42" id="bC"/><path fill="#333" d="M195-6C206 82 75 100 31 46c-4-6-6-13-8-21l49-6c3 16 16 24 34 25 40 0 42-37 40-79-11 22-30 35-61 35-53 0-70-43-70-97 0-56 18-96 73-97 30 0 46 14 59 34l2-30h47zm-90-29c32 0 41-27 41-63 0-35-9-62-40-62-32 0-39 29-40 63 0 36 9 62 39 62" id="bD"/><path fill="#333" d="M25-224v-37h50v37H25zM25 0v-190h50V0H25" id="bE"/><path fill="#333" d="M144 0l-44-69L55 0H2l70-98-66-92h53l41 62 40-62h54l-67 91 71 99h-54" id="bF"/><g id="p"><use transform="matrix(0.04938271604938272,0,0,0.04938271604938272,0,0)" xlink:href="#bC"/><use transform="matrix(0.04938271604938272,0,0,0.04938271604938272,10.814814814814815,0)" xlink:href="#bD"/><use transform="matrix(0.04938271604938272,0,0,0.04938271604938272,21.62962962962963,0)" xlink:href="#bE"/><use transform="matrix(0.04938271604938272,0,0,0.04938271604938272,26.567901234567902,0)" xlink:href="#bC"/><use transform="matrix(0.04938271604938272,0,0,0.04938271604938272,37.382716049382715,0)" xlink:href="#bF"/></g><path fill="#333" d="M133-34C117-15 103 5 69 4 32 3 11-16 11-54c-1-60 55-63 116-61 1-26-3-47-28-47-18 1-26 9-28 27l-52-2c7-38 36-58 82-57s74 22 75 68l1 82c-1 14 12 18 25 15v27c-30 8-71 5-69-32zm-48 3c29 0 43-24 42-57-32 0-66-3-65 30 0 17 8 27 23 27" id="bG"/><path fill="#333" d="M25 0v-261h50V0H25" id="bH"/><path fill="#333" d="M137-138c1-29-70-34-71-4 15 46 118 7 119 86 1 83-164 76-172 9l43-7c4 19 20 25 44 25 33 8 57-30 24-41C81-84 22-81 20-136c-2-80 154-74 161-7" id="bI"/><g id="q"><use transform="matrix(0.04938271604938272,0,0,0.04938271604938272,0,0)" xlink:href="#bG"/><use transform="matrix(0.04938271604938272,0,0,0.04938271604938272,9.876543209876544,0)" xlink:href="#bH"/><use transform="matrix(0.04938271604938272,0,0,0.04938271604938272,14.814814814814817,0)" xlink:href="#bE"/><use transform="matrix(0.04938271604938272,0,0,0.04938271604938272,19.75308641975309,0)" xlink:href="#bG"/><use transform="matrix(0.04938271604938272,0,0,0.04938271604938272,29.629629629629633,0)" xlink:href="#bI"/></g><path fill="#3a414a" d="M715 0H502L69-1082h202c94 253 197 500 285 758 19 57 36 126 52 183 96-335 234-626 350-941h201" id="bJ"/><path fill="#3a414a" d="M615-1102c343 0 484 203 482 560-1 347-147 562-488 562-336 0-475-219-479-562-4-349 156-560 485-560zm-8 989c240 0 301-180 301-429 0-245-55-427-290-427-236 0-299 181-299 427 0 243 61 429 288 429" id="bK"/><path fill="#3a414a" d="M736-142h380V0H134v-142h422v-1200H267v-142h469v1342" id="bL"/><path fill="#3a414a" d="M528 20c-247 0-343-132-343-381v-721h180v686c-4 177 45 284 224 277 194-8 279-136 279-336v-627h181c3 360-6 732 6 1082H885c-4-54-7-126-8-185h-3C809-64 714 20 528 20" id="bM"/><path fill="#3a414a" d="M904-1102c199 0 220 177 220 381V0H956v-686c-3-114 0-215-60-264-70-33-125-4-158 71-26 56-39 140-39 252V0H531v-686c-3-114-1-215-61-264-78-41-136 24-157 84-24 69-39 159-39 259V0H105c-3-360 6-732-6-1082h149c6 50 3 123 8 175 36-100 83-195 216-195 135 0 166 79 196 196 42-105 93-196 236-196" id="bN"/><path fill="#3a414a" d="M617-1102c355 0 481 238 477 599H322c5 222 84 388 301 388 144 0 244-59 284-166l158 45C1002-72 854 20 623 20c-342 0-490-220-490-568 0-346 151-554 484-554zm291 461c-18-192-90-328-289-328-194 0-287 128-295 328h584" id="bO"/><g id="r"><use transform="matrix(0.008680555555555554,0,0,0.008680555555555554,0,0)" xlink:href="#aV"/><use transform="matrix(0.008680555555555554,0,0,0.008680555555555554,10.668402777777777,0)" xlink:href="#bJ"/><use transform="matrix(0.008680555555555554,0,0,0.008680555555555554,21.336805555555554,0)" xlink:href="#bK"/><use transform="matrix(0.008680555555555554,0,0,0.008680555555555554,32.00520833333333,0)" xlink:href="#bL"/><use transform="matrix(0.008680555555555554,0,0,0.008680555555555554,42.67361111111111,0)" xlink:href="#bM"/><use transform="matrix(0.008680555555555554,0,0,0.008680555555555554,53.342013888888886,0)" xlink:href="#bN"/><use transform="matrix(0.008680555555555554,0,0,0.008680555555555554,64.01041666666666,0)" xlink:href="#bO"/><use transform="matrix(0.008680555555555554,0,0,0.008680555555555554,74.67881944444443,0)" xlink:href="#ba"/></g><path fill="#333" d="M88-194c31-1 46 15 58 34l-1-101h50l1 261h-48c-2-10 0-23-3-31C134-8 116 4 84 4 32 4 16-41 15-95c0-56 19-97 73-99zm17 164c33 0 40-30 41-66 1-37-9-64-41-64s-38 30-39 65c0 43 13 65 39 65" id="bP"/><path fill="#333" d="M110-194c64 0 96 36 96 99 0 64-35 99-97 99-61 0-95-36-95-99 0-62 34-99 96-99zm-1 164c35 0 45-28 45-65 0-40-10-65-43-65-34 0-45 26-45 65 0 36 10 65 43 65" id="bQ"/><path fill="#333" d="M190-63c-7 42-38 67-86 67-59 0-84-38-90-98-12-110 154-137 174-36l-49 2c-2-19-15-32-35-32-30 0-35 28-38 64-6 74 65 87 74 30" id="bR"/><path fill="#333" d="M147 0L96-86 75-71V0H25v-261h50v150l67-79h53l-66 74L201 0h-54" id="bS"/><path fill="#333" d="M185-48c-13 30-37 53-82 52C43 2 14-33 14-96s30-98 90-98c62 0 83 45 84 108H66c0 31 8 55 39 56 18 0 30-7 34-22zm-45-69c5-46-57-63-70-21-2 6-4 13-4 21h74" id="bT"/><path fill="#333" d="M135-150c-39-12-60 13-60 57V0H25l-1-190h47c2 13-1 29 3 40 6-28 27-53 61-41v41" id="bU"/><g id="s"><use transform="matrix(0.04938271604938272,0,0,0.04938271604938272,0,0)" xlink:href="#bP"/><use transform="matrix(0.04938271604938272,0,0,0.04938271604938272,10.814814814814815,0)" xlink:href="#bQ"/><use transform="matrix(0.04938271604938272,0,0,0.04938271604938272,21.62962962962963,0)" xlink:href="#bR"/><use transform="matrix(0.04938271604938272,0,0,0.04938271604938272,31.506172839506174,0)" xlink:href="#bS"/><use transform="matrix(0.04938271604938272,0,0,0.04938271604938272,41.38271604938272,0)" xlink:href="#bT"/><use transform="matrix(0.04938271604938272,0,0,0.04938271604938272,51.25925925925927,0)" xlink:href="#bU"/></g><path fill="#333" d="M128 0H69L1-190h53L99-40l48-150h52" id="bV"/><path fill="#333" d="M85 4C-2 5 27-109 22-190h50c7 57-23 150 33 157 60-5 35-97 40-157h50l1 190h-47c-2-12 1-28-3-38-12 25-28 42-61 42" id="bW"/><path fill="#333" d="M220-157c-53 9-28 100-34 157h-49v-107c1-27-5-49-29-50C55-147 81-57 75 0H25l-1-190h47c2 12-1 28 3 38 10-53 101-56 108 0 13-22 24-43 59-42 82 1 51 116 57 194h-49v-107c-1-25-5-48-29-50" id="bX"/><g id="t"><use transform="matrix(0.04938271604938272,0,0,0.04938271604938272,0,0)" xlink:href="#bV"/><use transform="matrix(0.04938271604938272,0,0,0.04938271604938272,9.876543209876544,0)" xlink:href="#bQ"/><use transform="matrix(0.04938271604938272,0,0,0.04938271604938272,20.69135802469136,0)" xlink:href="#bH"/><use transform="matrix(0.04938271604938272,0,0,0.04938271604938272,25.629629629629633,0)" xlink:href="#bW"/><use transform="matrix(0.04938271604938272,0,0,0.04938271604938272,36.44444444444445,0)" xlink:href="#bX"/><use transform="matrix(0.04938271604938272,0,0,0.04938271604938272,52.24691358024692,0)" xlink:href="#bT"/></g><path fill="#3a414a" d="M794-190h353V0H118v-190h395v-702H223v-190h571v892zM513-1277v-207h281v207H513" id="bY"/><path fill="#3a414a" d="M775-193C708-75 621 20 439 20 226 20 106-93 106-306c0-251 170-341 417-346l223-4c4-143-12-264-148-264-103 0-141 58-150 153l-293-14c37-219 194-321 455-321 263 0 418 130 417 390v392c1 84 5 161 89 160 21 0 42-2 62-6v152c-57 15-108 27-180 26-145 0-202-73-217-205h-6zm-256 17c168 0 234-139 227-325-166 4-347-25-347 173 0 94 33 152 120 152" id="bZ"/><path fill="#3a414a" d="M875-1102c70 0 148 7 206 17v237c-110-17-267-37-359 15-123 69-192 207-192 395V0H250c-10-367 32-789-52-1082h271c19 69 36 149 46 228h4c52-151 151-250 356-248" id="ca"/><path fill="#3a414a" d="M802-909c-3-189-2-383-2-575h281v1248c-1 83 4 168 8 236H817c-9-50-14-117-15-176h-4C735-49 651 20 482 20 191 20 97-238 97-539c0-243 66-432 221-519 50-28 108-42 175-42 162 2 253 78 309 191zm-70 658c91-113 93-462 2-584-46-61-145-100-224-53-96 56-119 190-120 349 0 123 17 214 52 275 46 82 130 115 222 74 25-12 46-33 68-61" id="cb"/><path fill="#3a414a" d="M874 0L612-392 348 0H49l406-559-387-523h303l241 354 240-354h305L770-562 1179 0H874" id="cc"/><path fill="#3a414a" d="M143 212c82 12 185 12 233-31 50-45 83-117 110-192L38-1082h297c100 284 211 557 291 861 72-305 176-578 270-861h294L742 57c-80 192-156 368-417 368-60 0-131-4-182-13V212" id="cd"/><g id="u"><use transform="matrix(0.007595486111111111,0,0,0.007595486111111111,0,0)" xlink:href="#aC"/><use transform="matrix(0.007595486111111111,0,0,0.007595486111111111,9.334852430555555,0)" xlink:href="#aE"/><use transform="matrix(0.007595486111111111,0,0,0.007595486111111111,18.66970486111111,0)" xlink:href="#aH"/><use transform="matrix(0.007595486111111111,0,0,0.007595486111111111,28.004557291666664,0)" xlink:href="#bY"/><use transform="matrix(0.007595486111111111,0,0,0.007595486111111111,37.33940972222222,0)" xlink:href="#aC"/><use transform="matrix(0.007595486111111111,0,0,0.007595486111111111,46.67426215277778,0)" xlink:href="#aF"/><use transform="matrix(0.007595486111111111,0,0,0.007595486111111111,56.009114583333336,0)" xlink:href="#bZ"/><use transform="matrix(0.007595486111111111,0,0,0.007595486111111111,65.34396701388889,0)" xlink:href="#aP"/><use transform="matrix(0.007595486111111111,0,0,0.007595486111111111,74.67881944444444,0)" xlink:href="#aN"/><use transform="matrix(0.007595486111111111,0,0,0.007595486111111111,84.013671875,0)" xlink:href="#aB"/><use transform="matrix(0.007595486111111111,0,0,0.007595486111111111,93.34852430555556,0)" xlink:href="#aC"/><use transform="matrix(0.007595486111111111,0,0,0.007595486111111111,102.68337673611111,0)" xlink:href="#aD"/><use transform="matrix(0.007595486111111111,0,0,0.007595486111111111,112.01822916666667,0)" xlink:href="#aE"/><use transform="matrix(0.007595486111111111,0,0,0.007595486111111111,121.35308159722223,0)" xlink:href="#aC"/><use transform="matrix(0.007595486111111111,0,0,0.007595486111111111,130.68793402777777,0)" xlink:href="#aF"/><use transform="matrix(0.007595486111111111,0,0,0.007595486111111111,140.02278645833331,0)" xlink:href="#aG"/><use transform="matrix(0.007595486111111111,0,0,0.007595486111111111,149.35763888888886,0)" xlink:href="#aF"/><use transform="matrix(0.007595486111111111,0,0,0.007595486111111111,158.6924913194444,0)" xlink:href="#aH"/><use transform="matrix(0.007595486111111111,0,0,0.007595486111111111,168.02734374999994,0)" xlink:href="#aI"/><use transform="matrix(0.007595486111111111,0,0,0.007595486111111111,177.3621961805555,0)" xlink:href="#aJ"/><use transform="matrix(0.007595486111111111,0,0,0.007595486111111111,186.69704861111103,0)" xlink:href="#aI"/><use transform="matrix(0.007595486111111111,0,0,0.007595486111111111,196.03190104166657,0)" xlink:href="#aG"/><use transform="matrix(0.007595486111111111,0,0,0.007595486111111111,205.36675347222211,0)" xlink:href="#aB"/><use transform="matrix(0.007595486111111111,0,0,0.007595486111111111,214.70160590277766,0)" xlink:href="#aM"/><use transform="matrix(0.007595486111111111,0,0,0.007595486111111111,224.0364583333332,0)" xlink:href="#ca"/><use transform="matrix(0.007595486111111111,0,0,0.007595486111111111,233.37131076388874,0)" xlink:href="#aG"/><use transform="matrix(0.007595486111111111,0,0,0.007595486111111111,242.7061631944443,0)" xlink:href="#aN"/><use transform="matrix(0.007595486111111111,0,0,0.007595486111111111,252.04101562499983,0)" xlink:href="#cb"/><use transform="matrix(0.007595486111111111,0,0,0.007595486111111111,261.3758680555554,0)" xlink:href="#bZ"/><use transform="matrix(0.007595486111111111,0,0,0.007595486111111111,270.7107204861109,0)" xlink:href="#aH"/><use transform="matrix(0.007595486111111111,0,0,0.007595486111111111,280.04557291666646,0)" xlink:href="#bZ"/><use transform="matrix(0.007595486111111111,0,0,0.007595486111111111,289.380425347222,0)" xlink:href="#aN"/><use transform="matrix(0.007595486111111111,0,0,0.007595486111111111,298.71527777777754,0)" xlink:href="#aE"/><use transform="matrix(0.007595486111111111,0,0,0.007595486111111111,308.0501302083331,0)" xlink:href="#ca"/><use transform="matrix(0.007595486111111111,0,0,0.007595486111111111,317.38498263888863,0)" xlink:href="#aC"/><use transform="matrix(0.007595486111111111,0,0,0.007595486111111111,326.7198350694442,0)" xlink:href="#cc"/><use transform="matrix(0.007595486111111111,0,0,0.007595486111111111,336.0546874999997,0)" xlink:href="#cd"/></g><path fill="#3a414a" d="M220-157c-53 9-28 100-34 157h-49v-107c1-27-5-49-29-50C55-147 81-57 75 0H25l-1-190h47c2 12-1 28 3 38 10-53 101-56 108 0 13-22 24-43 59-42 82 1 51 116 57 194h-49v-107c-1-25-5-48-29-50" id="ce"/><path fill="#3a414a" d="M133-34C117-15 103 5 69 4 32 3 11-16 11-54c-1-60 55-63 116-61 1-26-3-47-28-47-18 1-26 9-28 27l-52-2c7-38 36-58 82-57s74 22 75 68l1 82c-1 14 12 18 25 15v27c-30 8-71 5-69-32zm-48 3c29 0 43-24 42-57-32 0-66-3-65 30 0 17 8 27 23 27" id="cf"/><path fill="#3a414a" d="M195-6C206 82 75 100 31 46c-4-6-6-13-8-21l49-6c3 16 16 24 34 25 40 0 42-37 40-79-11 22-30 35-61 35-53 0-70-43-70-97 0-56 18-96 73-97 30 0 46 14 59 34l2-30h47zm-90-29c32 0 41-27 41-63 0-35-9-62-40-62-32 0-39 29-40 63 0 36 9 62 39 62" id="cg"/><path fill="#3a414a" d="M25-224v-37h50v37H25zM25 0v-190h50V0H25" id="ch"/><path fill="#3a414a" d="M185-48c-13 30-37 53-82 52C43 2 14-33 14-96s30-98 90-98c62 0 83 45 84 108H66c0 31 8 55 39 56 18 0 30-7 34-22zm-45-69c5-46-57-63-70-21-2 6-4 13-4 21h74" id="ci"/><g id="v"><use transform="matrix(0.06172839506172839,0,0,0.06172839506172839,0,0)" xlink:href="#ce"/><use transform="matrix(0.06172839506172839,0,0,0.06172839506172839,19.753086419753085,0)" xlink:href="#cf"/><use transform="matrix(0.06172839506172839,0,0,0.06172839506172839,32.098765432098766,0)" xlink:href="#cg"/><use transform="matrix(0.06172839506172839,0,0,0.06172839506172839,45.617283950617285,0)" xlink:href="#aQ"/><use transform="matrix(0.06172839506172839,0,0,0.06172839506172839,59.135802469135804,0)" xlink:href="#ch"/><use transform="matrix(0.06172839506172839,0,0,0.06172839506172839,65.30864197530865,0)" xlink:href="#ci"/></g><path fill="#3a414a" d="M622-1349c296 4 497 117 497 404 0 282-193 424-485 431H353V0H162v-1349h460zm-15 684c195-3 320-88 320-277 0-184-129-255-328-254H353v531h254" id="cj"/><path fill="#3a414a" d="M473-1349c438-1 655 221 652 661C1122-268 945-8 532 0H162v-1349h311zm42 1193c308-4 416-205 418-532 2-330-131-509-459-505H353v1037h162" id="ck"/><g id="w"><use transform="matrix(0.008680555555555554,0,0,0.008680555555555554,0,0)" xlink:href="#aV"/><use transform="matrix(0.008680555555555554,0,0,0.008680555555555554,10.668402777777777,0)" xlink:href="#cj"/><use transform="matrix(0.008680555555555554,0,0,0.008680555555555554,21.336805555555554,0)" xlink:href="#ck"/><use transform="matrix(0.008680555555555554,0,0,0.008680555555555554,32.00520833333333,0)" xlink:href="#cj"/></g><path fill="#3a414a" d="M334-464v-160h560v160H334" id="cl"/><use transform="matrix(0.008680555555555554,0,0,0.008680555555555554,0,0)" xlink:href="#cl" id="x"/><path fill="#3a414a" d="M1034 0L896-382H333L196 0H0l510-1349h217L1228 0h-194zM847-531c-77-225-157-447-231-674-69 231-154 451-232 674h463" id="cm"/><path fill="#3a414a" d="M682 16c-209 0-323-80-324-285v-671H190v-142h170l58-282h120v282h432v142H538v652c2 114 60 155 182 155 106 0 209-16 297-34v137C921-4 806 16 682 16" id="cn"/><path fill="#3a414a" d="M648-963c-190 6-283 138-283 336V0H185v-1484h181c-2 197 6 404-9 587h3c62-120 159-205 339-205 242 0 351 135 350 381V0H868v-695c1-168-57-273-220-268" id="co"/><path fill="#3a414a" d="M912-211c-10-84-18-177-18-274v-864h172V0H836L316-1130c7 79 16 167 16 254V0H162v-1349h222" id="cp"/><path fill="#3a414a" d="M114 20l821-1504h178L296 20H114" id="cq"/><path fill="#3a414a" d="M1155 0H73v-143l818-1050H146v-156h962v139L290-156h865V0" id="cr"/><g id="y"><use transform="matrix(0.008680555555555554,0,0,0.008680555555555554,0,0)" xlink:href="#cm"/><use transform="matrix(0.008680555555555554,0,0,0.008680555555555554,10.668402777777777,0)" xlink:href="#bM"/><use transform="matrix(0.008680555555555554,0,0,0.008680555555555554,21.336805555555554,0)" xlink:href="#cn"/><use transform="matrix(0.008680555555555554,0,0,0.008680555555555554,32.00520833333333,0)" xlink:href="#co"/><use transform="matrix(0.008680555555555554,0,0,0.008680555555555554,42.67361111111111,0)" xlink:href="#cp"/><use transform="matrix(0.008680555555555554,0,0,0.008680555555555554,53.342013888888886,0)" xlink:href="#cq"/><use transform="matrix(0.008680555555555554,0,0,0.008680555555555554,64.01041666666666,0)" xlink:href="#cm"/><use transform="matrix(0.008680555555555554,0,0,0.008680555555555554,74.67881944444443,0)" xlink:href="#bM"/><use transform="matrix(0.008680555555555554,0,0,0.008680555555555554,85.3472222222222,0)" xlink:href="#cn"/><use transform="matrix(0.008680555555555554,0,0,0.008680555555555554,96.01562499999997,0)" xlink:href="#co"/><use transform="matrix(0.008680555555555554,0,0,0.008680555555555554,106.68402777777774,0)" xlink:href="#cr"/><use transform="matrix(0.008680555555555554,0,0,0.008680555555555554,117.35243055555551,0)" xlink:href="#ba"/></g><path fill="#3a414a" d="M470 0v-305h289V0H470zm0-780v-305h289v305H470" id="cs"/><g id="z"><use transform="matrix(0.008680555555555554,0,0,0.008680555555555554,0,0)" xlink:href="#aI"/><use transform="matrix(0.008680555555555554,0,0,0.008680555555555554,10.668402777777777,0)" xlink:href="#aG"/><use transform="matrix(0.008680555555555554,0,0,0.008680555555555554,21.336805555555554,0)" xlink:href="#ca"/><use transform="matrix(0.008680555555555554,0,0,0.008680555555555554,32.00520833333333,0)" xlink:href="#aO"/><use transform="matrix(0.008680555555555554,0,0,0.008680555555555554,42.67361111111111,0)" xlink:href="#bY"/><use transform="matrix(0.008680555555555554,0,0,0.008680555555555554,53.342013888888886,0)" xlink:href="#aB"/><use transform="matrix(0.008680555555555554,0,0,0.008680555555555554,64.01041666666666,0)" xlink:href="#aG"/><use transform="matrix(0.008680555555555554,0,0,0.008680555555555554,74.67881944444443,0)" xlink:href="#cs"/></g><path fill="#3a414a" d="M873-819c-18-114-119-146-250-146-163 0-245 50-245 151 0 151 170 148 294 185 182 54 388 94 388 320 0 240-189 325-439 329-245 4-410-69-454-268l159-31c24 133 136 168 295 165 144-2 270-31 270-171 0-164-195-160-331-202-167-52-350-87-350-299 0-218 173-315 413-313 220 2 373 77 412 260" id="ct"/><path fill="#3a414a" d="M631 20c-350 0-501-215-501-562 0-355 162-560 502-560 250 0 399 118 446 323l-192 14c-23-124-109-196-262-196-242 0-305 171-305 415 1 245 61 427 304 427 151 0 248-77 267-215l190 12C1039-107 883 20 631 20" id="cu"/><path fill="#3a414a" d="M839-1102c70 0 148 7 206 17v167c-112-18-268-36-363 15-129 69-208 203-208 395V0H294c-10-367 32-789-52-1082h171c21 75 41 161 48 250h5c67-152 152-270 373-270" id="cv"/><path fill="#3a414a" d="M865-914c-3-187-2-380-2-570h180v1261c0 76 1 155 6 223H877c-8-49-9-116-10-174h-5C801-44 708 26 530 26c-135 0-234-46-297-139s-95-232-95-419c0-377 131-566 392-566 176 0 271 63 335 184zm-286-51c-222 0-255 197-255 427 0 229 31 425 253 425 237 0 286-195 286-441 0-238-52-411-284-411" id="cw"/><path fill="#3a414a" d="M1000-272c3 95 12 159 101 161 21 0 41-3 59-7V-6c-44 10-86 16-139 16-141 2-191-84-197-217h-6C748-76 648 20 446 20c-207 0-318-120-318-322 0-266 194-348 454-354l236-4c12-191-40-305-222-305-140 0-220 47-232 172l-188-17c33-204 181-292 423-292 255 0 401 118 401 364v466zm-683-27c0 109 63 184 175 182 166-3 259-96 306-217 24-65 20-120 20-200-232 7-501-28-501 235" id="cx"/><path fill="#3a414a" d="M698-1104c312 3 392 244 392 558 0 315-82 566-392 566-169 0-277-65-331-184h-5c8 188 2 394 4 589H185V-858c0-76-1-156-6-224h175c6 52 9 120 10 178h4c58-122 150-202 330-200zm-49 991c225 0 255-203 255-433 0-225-32-419-253-419-236 0-285 192-285 441 0 237 53 411 283 411" id="cy"/><path fill="#3a414a" d="M168 279c222 39 310-114 368-290L66-1082h192c120 299 249 590 362 896 115-301 235-597 351-896h190L705 0c-65 164-130 320-275 396-67 36-177 35-262 18V279" id="cz"/><g id="A"><use transform="matrix(0.008680555555555554,0,0,0.008680555555555554,0,0)" xlink:href="#ct"/><use transform="matrix(0.008680555555555554,0,0,0.008680555555555554,10.668402777777777,0)" xlink:href="#bO"/><use transform="matrix(0.008680555555555554,0,0,0.008680555555555554,21.336805555555554,0)" xlink:href="#cu"/><use transform="matrix(0.008680555555555554,0,0,0.008680555555555554,32.00520833333333,0)" xlink:href="#bM"/><use transform="matrix(0.008680555555555554,0,0,0.008680555555555554,42.67361111111111,0)" xlink:href="#cv"/><use transform="matrix(0.008680555555555554,0,0,0.008680555555555554,53.342013888888886,0)" xlink:href="#bO"/><use transform="matrix(0.008680555555555554,0,0,0.008680555555555554,64.01041666666666,0)" xlink:href="#cl"/><use transform="matrix(0.008680555555555554,0,0,0.008680555555555554,74.67881944444443,0)" xlink:href="#cw"/><use transform="matrix(0.008680555555555554,0,0,0.008680555555555554,85.3472222222222,0)" xlink:href="#cx"/><use transform="matrix(0.008680555555555554,0,0,0.008680555555555554,96.01562499999997,0)" xlink:href="#cn"/><use transform="matrix(0.008680555555555554,0,0,0.008680555555555554,106.68402777777774,0)" xlink:href="#cx"/><use transform="matrix(0.008680555555555554,0,0,0.008680555555555554,117.35243055555551,0)" xlink:href="#cl"/><use transform="matrix(0.008680555555555554,0,0,0.008680555555555554,128.0208333333333,0)" xlink:href="#cy"/><use transform="matrix(0.008680555555555554,0,0,0.008680555555555554,138.68923611111106,0)" xlink:href="#cv"/><use transform="matrix(0.008680555555555554,0,0,0.008680555555555554,149.35763888888883,0)" xlink:href="#bK"/><use transform="matrix(0.008680555555555554,0,0,0.008680555555555554,160.0260416666666,0)" xlink:href="#aZ"/><use transform="matrix(0.008680555555555554,0,0,0.008680555555555554,170.6944444444444,0)" xlink:href="#cz"/></g><g id="B"><use transform="matrix(0.008680555555555554,0,0,0.008680555555555554,0,0)" xlink:href="#ca"/><use transform="matrix(0.008680555555555554,0,0,0.008680555555555554,10.668402777777777,0)" xlink:href="#aG"/><use transform="matrix(0.008680555555555554,0,0,0.008680555555555554,21.336805555555554,0)" xlink:href="#aI"/><use transform="matrix(0.008680555555555554,0,0,0.008680555555555554,32.00520833333333,0)" xlink:href="#aC"/><use transform="matrix(0.008680555555555554,0,0,0.008680555555555554,42.67361111111111,0)" xlink:href="#aM"/><use transform="matrix(0.008680555555555554,0,0,0.008680555555555554,53.342013888888886,0)" xlink:href="#ca"/><use transform="matrix(0.008680555555555554,0,0,0.008680555555555554,64.01041666666666,0)" xlink:href="#aB"/><use transform="matrix(0.008680555555555554,0,0,0.008680555555555554,74.67881944444443,0)" xlink:href="#aG"/><use transform="matrix(0.008680555555555554,0,0,0.008680555555555554,85.3472222222222,0)" xlink:href="#cs"/></g><path fill="#3a414a" d="M1018 0H814c-67-224-138-444-200-673C552-442 476-224 407 0H204L21-1082h178c43 310 105 601 126 933 54-225 128-425 193-638h193c63 212 134 415 185 638 22-336 90-622 136-933h176" id="cA"/><path fill="#3a414a" d="M410 425v-1909h547v139H590V286h367v139H410" id="cB"/><path fill="#3a414a" d="M496 0v-299h235V0H496" id="cC"/><path fill="#3a414a" d="M270 425V286h367v-1631H270v-139h547V425H270" id="cD"/><g id="C"><use transform="matrix(0.008680555555555554,0,0,0.008680555555555554,0,0)" xlink:href="#cA"/><use transform="matrix(0.008680555555555554,0,0,0.008680555555555554,10.668402777777777,0)" xlink:href="#cy"/><use transform="matrix(0.008680555555555554,0,0,0.008680555555555554,21.336805555555554,0)" xlink:href="#ct"/><use transform="matrix(0.008680555555555554,0,0,0.008680555555555554,32.00520833333333,0)" xlink:href="#bK"/><use transform="matrix(0.008680555555555554,0,0,0.008680555555555554,42.67361111111111,0)" xlink:href="#bM"/><use transform="matrix(0.008680555555555554,0,0,0.008680555555555554,53.342013888888886,0)" xlink:href="#cn"/><use transform="matrix(0.008680555555555554,0,0,0.008680555555555554,64.01041666666666,0)" xlink:href="#cy"/><use transform="matrix(0.008680555555555554,0,0,0.008680555555555554,74.67881944444443,0)" xlink:href="#bM"/><use transform="matrix(0.008680555555555554,0,0,0.008680555555555554,85.3472222222222,0)" xlink:href="#cn"/><use transform="matrix(0.008680555555555554,0,0,0.008680555555555554,96.01562499999997,0)" xlink:href="#ct"/><use transform="matrix(0.008680555555555554,0,0,0.008680555555555554,106.68402777777774,0)" xlink:href="#cq"/><use transform="matrix(0.008680555555555554,0,0,0.008680555555555554,117.35243055555551,0)" xlink:href="#cB"/><use transform="matrix(0.008680555555555554,0,0,0.008680555555555554,128.0208333333333,0)" xlink:href="#cC"/><use transform="matrix(0.008680555555555554,0,0,0.008680555555555554,138.68923611111106,0)" xlink:href="#cC"/><use transform="matrix(0.008680555555555554,0,0,0.008680555555555554,149.35763888888883,0)" xlink:href="#cC"/><use transform="matrix(0.008680555555555554,0,0,0.008680555555555554,160.0260416666666,0)" xlink:href="#cD"/></g><path fill="#3a414a" d="M115-3C79 11 28 4 28-45v-112H4v-33h27l15-45h31v45h36v33H77v99c-1 23 16 31 38 25v30" id="cE"/><path fill="#3a414a" d="M231 0h-52l-39-155L100 0H48L-1-190h46L77-45c9-52 24-97 36-145h53l37 145 32-145h46" id="cF"/><path fill="#3a414a" d="M190-63c-7 42-38 67-86 67-59 0-84-38-90-98-12-110 154-137 174-36l-49 2c-2-19-15-32-35-32-30 0-35 28-38 64-6 74 65 87 74 30" id="cG"/><path fill="#3a414a" d="M114-157C55-157 80-60 75 0H25v-261h50l-1 109c12-26 28-41 61-42 86-1 58 113 63 194h-50c-7-57 23-157-34-157" id="cH"/><g id="D"><use transform="matrix(0.06172839506172839,0,0,0.06172839506172839,0,0)" xlink:href="#cE"/><use transform="matrix(0.06172839506172839,0,0,0.06172839506172839,7.345679012345679,0)" xlink:href="#cF"/><use transform="matrix(0.06172839506172839,0,0,0.06172839506172839,24.629629629629626,0)" xlink:href="#ch"/><use transform="matrix(0.06172839506172839,0,0,0.06172839506172839,30.802469135802465,0)" xlink:href="#cE"/><use transform="matrix(0.06172839506172839,0,0,0.06172839506172839,38.148148148148145,0)" xlink:href="#cG"/><use transform="matrix(0.06172839506172839,0,0,0.06172839506172839,50.49382716049382,0)" xlink:href="#cH"/><use transform="matrix(0.06172839506172839,0,0,0.06172839506172839,64.01234567901234,0)" xlink:href="#ci"/><use transform="matrix(0.06172839506172839,0,0,0.06172839506172839,76.35802469135803,0)" xlink:href="#aR"/></g><path fill="#3a414a" d="M162 0v-1349h919v156H353v422h668v154H353v461h769V0H162" id="cI"/><g id="E"><use transform="matrix(0.008680555555555554,0,0,0.008680555555555554,0,0)" xlink:href="#aV"/><use transform="matrix(0.008680555555555554,0,0,0.008680555555555554,10.668402777777777,0)" xlink:href="#cj"/><use transform="matrix(0.008680555555555554,0,0,0.008680555555555554,21.336805555555554,0)" xlink:href="#cI"/><use transform="matrix(0.008680555555555554,0,0,0.008680555555555554,32.00520833333333,0)" xlink:href="#cj"/><use transform="matrix(0.008680555555555554,0,0,0.008680555555555554,42.67361111111111,0)" xlink:href="#ba"/></g><g id="F"><use transform="matrix(0.007595486111111112,0,0,0.007595486111111112,0,0)" xlink:href="#bq"/><use transform="matrix(0.007595486111111112,0,0,0.007595486111111112,9.334852430555557,0)" xlink:href="#br"/><use transform="matrix(0.007595486111111112,0,0,0.007595486111111112,18.669704861111114,0)" xlink:href="#br"/><use transform="matrix(0.007595486111111112,0,0,0.007595486111111112,28.00455729166667,0)" xlink:href="#bs"/></g><g id="G"><use transform="matrix(0.007595486111111112,0,0,0.007595486111111112,0,0)" xlink:href="#bt"/><use transform="matrix(0.007595486111111112,0,0,0.007595486111111112,9.334852430555557,0)" xlink:href="#bu"/><use transform="matrix(0.007595486111111112,0,0,0.007595486111111112,18.669704861111114,0)" xlink:href="#br"/></g><path fill="#333" d="M1074-1484C764-1178 497-826 497-240c0 287 95 480 206 665H513C401 244 309 50 309-234c0-588 264-946 575-1250h190" id="cJ"/><path fill="#333" d="M668-142h380L1020 0H38l28-142h422l155-798H324l27-142h499zm23-1150l37-192h200l-37 192H691" id="cK"/><path fill="#333" d="M815-1102c202-2 311 102 279 314-40 267-101 525-150 788H763l135-695c7-39 11-71 11-98 2-119-62-175-179-170-208 9-312 151-348 336L260 0H80c67-361 144-713 204-1082h170c-6 58-17 130-28 185h3c86-116 194-203 386-205" id="cL"/><path fill="#333" d="M574 16c-199 5-309-85-269-285l131-671H268l27-142h170l113-282h120l-55 282h432l-27 142H616c-43 233-105 457-132 696-16 144 198 111 324 99 46-6 96-14 136-22L918-30C819-5 700 13 574 16" id="cM"/><path fill="#333" d="M726-1102c256 0 385 126 386 379 1 67-11 147-25 220H315c-7 39-13 78-13 121 2 164 74 267 238 267 154 0 260-65 317-166l149 45C916-82 760 20 514 20c-259 0-398-131-398-390 0-357 148-615 421-704 62-20 125-28 189-28zm202 461c22-192-41-335-226-328-212 9-312 142-358 328h584" id="cN"/><path fill="#333" d="M523-832c93-143 191-271 425-270 69 0 147 7 203 17l-33 167c-114-19-266-34-366 15-148 73-248 213-284 395L369 0H189l136-701c21-116 30-253 22-381h171c8 76 8 174 0 250h5" id="cO"/><path fill="#333" d="M948-272c-17 76-19 161 70 161 21 0 42-3 60-7L1056-6c-45 10-88 14-142 16-138 6-175-86-155-217h-6C661-83 550 15 337 20 138 24 42-104 82-302c49-247 238-349 523-354l236-4c9-47 22-94 22-148 0-118-65-155-184-157-151-3-231 57-266 172l-185-17c67-189 220-292 480-292 245 0 377 119 330 364zm-678-27c-21 109 31 185 140 182 176-5 282-102 348-217 37-66 43-123 59-200-145 7-304-9-409 44-71 36-119 96-138 191" id="cP"/><path fill="#333" d="M659-142h380L1011 0H29l28-142h422l233-1200H423l27-142h469" id="cQ"/><path fill="#333" d="M915-832c0 594-261 950-575 1257H148C458 120 728-231 728-816c0-288-97-482-209-668h192c111 180 204 370 204 652" id="cR"/><g id="H"><use transform="matrix(0.007595486111111112,0,0,0.007595486111111112,0,0)" xlink:href="#cJ"/><use transform="matrix(0.007595486111111112,0,0,0.007595486111111112,9.334852430555557,0)" xlink:href="#cK"/><use transform="matrix(0.007595486111111112,0,0,0.007595486111111112,18.669704861111114,0)" xlink:href="#cL"/><use transform="matrix(0.007595486111111112,0,0,0.007595486111111112,28.00455729166667,0)" xlink:href="#cM"/><use transform="matrix(0.007595486111111112,0,0,0.007595486111111112,37.33940972222223,0)" xlink:href="#cN"/><use transform="matrix(0.007595486111111112,0,0,0.007595486111111112,46.674262152777786,0)" xlink:href="#cO"/><use transform="matrix(0.007595486111111112,0,0,0.007595486111111112,56.00911458333334,0)" xlink:href="#cL"/><use transform="matrix(0.007595486111111112,0,0,0.007595486111111112,65.3439670138889,0)" xlink:href="#cP"/><use transform="matrix(0.007595486111111112,0,0,0.007595486111111112,74.67881944444446,0)" xlink:href="#cQ"/><use transform="matrix(0.007595486111111112,0,0,0.007595486111111112,84.01367187500001,0)" xlink:href="#cR"/></g><path fill="#333" d="M794-190h353V0H118v-190h395v-702H223v-190h571v892zM513-1277v-207h281v207H513" id="cS"/><path fill="#333" d="M1109-360C1066-122 902 20 624 20c-347 0-514-209-514-555 0-353 168-567 518-567 270 0 425 136 473 361l-283 14c-16-106-75-183-196-182-75 0-130 31-165 93s-52 152-52 270c0 249 74 374 221 374 120 0 188-82 201-201" id="cT"/><path fill="#333" d="M424-1484c-2 206 5 424-8 618h4c67-145 160-234 348-236 251-3 335 167 336 416V0H824v-621c0-150-23-276-173-270-163 7-227 142-227 312V0H143v-1484h281" id="cU"/><path fill="#333" d="M1113-274C1038-96 884 20 626 20c-352 0-526-209-526-566 0-358 185-556 530-556 358 0 496 251 499 615H395c5 180 68 319 245 319 102 0 186-45 208-129zM857-663c-6-177-128-307-315-247-94 30-141 121-145 247h460" id="cV"/><path fill="#333" d="M875-1102c70 0 148 7 206 17v237c-110-17-267-37-359 15-123 69-192 207-192 395V0H250c-10-367 32-789-52-1082h271c19 69 36 149 46 228h4c52-151 151-250 356-248" id="cW"/><path fill="#333" d="M874 0L612-392 348 0H49l406-559-387-523h303l241 354 240-354h305L770-562 1179 0H874" id="cX"/><path fill="#333" d="M143 212c82 12 185 12 233-31 50-45 83-117 110-192L38-1082h297c100 284 211 557 291 861 72-305 176-578 270-861h294L742 57c-80 192-156 368-417 368-60 0-131-4-182-13V212" id="cY"/><path fill="#333" d="M324-409v-244h580v244H324" id="cZ"/><path fill="#333" d="M802-909c-3-189-2-383-2-575h281v1248c-1 83 4 168 8 236H817c-9-50-14-117-15-176h-4C735-49 651 20 482 20 191 20 97-238 97-539c0-243 66-432 221-519 50-28 108-42 175-42 162 2 253 78 309 191zm-70 658c91-113 93-462 2-584-46-61-145-100-224-53-96 56-119 190-120 349 0 123 17 214 52 275 46 82 130 115 222 74 25-12 46-33 68-61" id="da"/><path fill="#333" d="M775-193C708-75 621 20 439 20 226 20 106-93 106-306c0-251 170-341 417-346l223-4c4-143-12-264-148-264-103 0-141 58-150 153l-293-14c37-219 194-321 455-321 263 0 418 130 417 390v392c1 84 5 161 89 160 21 0 42-2 62-6v152c-57 15-108 27-180 26-145 0-202-73-217-205h-6zm-256 17c168 0 234-139 227-325-166 4-347-25-347 173 0 94 33 152 120 152" id="db"/><g id="I"><use transform="matrix(0.007595486111111112,0,0,0.007595486111111112,0,0)" xlink:href="#bv"/><use transform="matrix(0.007595486111111112,0,0,0.007595486111111112,9.334852430555557,0)" xlink:href="#bB"/><use transform="matrix(0.007595486111111112,0,0,0.007595486111111112,18.669704861111114,0)" xlink:href="#bw"/><use transform="matrix(0.007595486111111112,0,0,0.007595486111111112,28.00455729166667,0)" xlink:href="#cS"/><use transform="matrix(0.007595486111111112,0,0,0.007595486111111112,37.33940972222223,0)" xlink:href="#bB"/><use transform="matrix(0.007595486111111112,0,0,0.007595486111111112,46.674262152777786,0)" xlink:href="#cT"/><use transform="matrix(0.007595486111111112,0,0,0.007595486111111112,56.00911458333334,0)" xlink:href="#cU"/><use transform="matrix(0.007595486111111112,0,0,0.007595486111111112,65.3439670138889,0)" xlink:href="#cV"/><use transform="matrix(0.007595486111111112,0,0,0.007595486111111112,74.67881944444446,0)" xlink:href="#cW"/><use transform="matrix(0.007595486111111112,0,0,0.007595486111111112,84.01367187500001,0)" xlink:href="#bv"/><use transform="matrix(0.007595486111111112,0,0,0.007595486111111112,93.34852430555557,0)" xlink:href="#bz"/><use transform="matrix(0.007595486111111112,0,0,0.007595486111111112,102.68337673611113,0)" xlink:href="#bw"/><use transform="matrix(0.007595486111111112,0,0,0.007595486111111112,112.01822916666669,0)" xlink:href="#by"/><use transform="matrix(0.007595486111111112,0,0,0.007595486111111112,121.35308159722224,0)" xlink:href="#bv"/><use transform="matrix(0.007595486111111112,0,0,0.007595486111111112,130.6879340277778,0)" xlink:href="#bx"/><use transform="matrix(0.007595486111111112,0,0,0.007595486111111112,140.02278645833337,0)" xlink:href="#cW"/><use transform="matrix(0.007595486111111112,0,0,0.007595486111111112,149.3576388888889,0)" xlink:href="#bz"/><use transform="matrix(0.007595486111111112,0,0,0.007595486111111112,158.69249131944446,0)" xlink:href="#cX"/><use transform="matrix(0.007595486111111112,0,0,0.007595486111111112,168.02734375,0)" xlink:href="#cY"/><use transform="matrix(0.007595486111111112,0,0,0.007595486111111112,177.36219618055554,0)" xlink:href="#bv"/><use transform="matrix(0.007595486111111112,0,0,0.007595486111111112,186.6970486111111,0)" xlink:href="#by"/><use transform="matrix(0.007595486111111112,0,0,0.007595486111111112,196.03190104166663,0)" xlink:href="#cV"/><use transform="matrix(0.007595486111111112,0,0,0.007595486111111112,205.36675347222217,0)" xlink:href="#cT"/><use transform="matrix(0.007595486111111112,0,0,0.007595486111111112,214.70160590277771,0)" xlink:href="#bA"/><use transform="matrix(0.007595486111111112,0,0,0.007595486111111112,224.03645833333326,0)" xlink:href="#cW"/><use transform="matrix(0.007595486111111112,0,0,0.007595486111111112,233.3713107638888,0)" xlink:href="#cV"/><use transform="matrix(0.007595486111111112,0,0,0.007595486111111112,242.70616319444434,0)" xlink:href="#cZ"/><use transform="matrix(0.007595486111111112,0,0,0.007595486111111112,252.04101562499986,0)" xlink:href="#da"/><use transform="matrix(0.007595486111111112,0,0,0.007595486111111112,261.37586805555543,0)" xlink:href="#db"/><use transform="matrix(0.007595486111111112,0,0,0.007595486111111112,270.710720486111,0)" xlink:href="#bB"/><use transform="matrix(0.007595486111111112,0,0,0.007595486111111112,280.0455729166665,0)" xlink:href="#db"/><use transform="matrix(0.007595486111111112,0,0,0.007595486111111112,289.38042534722206,0)" xlink:href="#cZ"/><use transform="matrix(0.007595486111111112,0,0,0.007595486111111112,298.7152777777776,0)" xlink:href="#bx"/><use transform="matrix(0.007595486111111112,0,0,0.007595486111111112,308.05013020833314,0)" xlink:href="#cW"/><use transform="matrix(0.007595486111111112,0,0,0.007595486111111112,317.3849826388887,0)" xlink:href="#bz"/><use transform="matrix(0.007595486111111112,0,0,0.007595486111111112,326.71983506944423,0)" xlink:href="#cX"/><use transform="matrix(0.007595486111111112,0,0,0.007595486111111112,336.0546874999998,0)" xlink:href="#cY"/><use transform="matrix(0.007595486111111112,0,0,0.007595486111111112,345.3895399305553,0)" xlink:href="#bv"/><use transform="matrix(0.007595486111111112,0,0,0.007595486111111112,354.72439236111086,0)" xlink:href="#bw"/><use transform="matrix(0.007595486111111112,0,0,0.007595486111111112,364.0592447916664,0)" xlink:href="#bx"/><use transform="matrix(0.007595486111111112,0,0,0.007595486111111112,373.39409722222194,0)" xlink:href="#by"/><use transform="matrix(0.007595486111111112,0,0,0.007595486111111112,382.7289496527775,0)" xlink:href="#bz"/><use transform="matrix(0.007595486111111112,0,0,0.007595486111111112,392.06380208333303,0)" xlink:href="#bA"/><use transform="matrix(0.007595486111111112,0,0,0.007595486111111112,401.3986545138886,0)" xlink:href="#bB"/><use transform="matrix(0.007595486111111112,0,0,0.007595486111111112,410.7335069444441,0)" xlink:href="#bx"/><use transform="matrix(0.007595486111111112,0,0,0.007595486111111112,420.06835937499966,0)" xlink:href="#bA"/><use transform="matrix(0.007595486111111112,0,0,0.007595486111111112,429.4032118055552,0)" xlink:href="#bB"/><use transform="matrix(0.007595486111111112,0,0,0.007595486111111112,438.73806423611074,0)" xlink:href="#by"/></g><path fill="#3a414a" d="M1108-33c-3 314-178 467-492 467-243 0-400-94-447-291l281-33c17 79 82 141 174 141 176 0 212-155 205-347-2-40 5-80 0-115C773-85 665-12 501-12c-288 0-377-242-377-538 0-242 65-426 223-510 50-26 108-39 175-39 160 0 253 78 307 191h5c1-58 5-125 14-174h266c-12 335-3 703-6 1049zM811-384c25-82 27-259 1-342-30-99-77-180-190-180-172 0-205 171-205 356 0 116 18 202 54 258 48 76 129 107 221 70 62-25 96-86 119-162" id="dc"/><g id="J"><use transform="matrix(0.006510416666666664,0,0,0.006510416666666664,0,0)" xlink:href="#aF"/><use transform="matrix(0.006510416666666664,0,0,0.006510416666666664,8.00130208333333,0)" xlink:href="#dc"/><use transform="matrix(0.006510416666666664,0,0,0.006510416666666664,16.00260416666666,0)" xlink:href="#bY"/><use transform="matrix(0.006510416666666664,0,0,0.006510416666666664,24.003906249999993,0)" xlink:href="#aF"/><use transform="matrix(0.006510416666666664,0,0,0.006510416666666664,32.00520833333332,0)" xlink:href="#cc"/></g><path fill="#3a414a" d="M844-1321c-130 0-195 53-191 182v57h443v190H653V0H373v-892H117v-190h256v-83c5-247 162-348 422-349 120-1 232 13 327 28v184c-84-10-183-19-278-19" id="dd"/><path fill="#3a414a" d="M470 0v-305h289V0H470" id="de"/><g id="K"><use transform="matrix(0.006510416666666664,0,0,0.006510416666666664,0,0)" xlink:href="#aB"/><use transform="matrix(0.006510416666666664,0,0,0.006510416666666664,8.00130208333333,0)" xlink:href="#aC"/><use transform="matrix(0.006510416666666664,0,0,0.006510416666666664,16.00260416666666,0)" xlink:href="#aF"/><use transform="matrix(0.006510416666666664,0,0,0.006510416666666664,24.003906249999993,0)" xlink:href="#dd"/><use transform="matrix(0.006510416666666664,0,0,0.006510416666666664,32.00520833333332,0)" xlink:href="#de"/><use transform="matrix(0.006510416666666664,0,0,0.006510416666666664,40.00651041666665,0)" xlink:href="#cb"/><use transform="matrix(0.006510416666666664,0,0,0.006510416666666664,48.00781249999998,0)" xlink:href="#cs"/></g><g id="L"><use transform="matrix(0.006510416666666664,0,0,0.006510416666666664,0,0)" xlink:href="#cx"/><use transform="matrix(0.006510416666666664,0,0,0.006510416666666664,8.00130208333333,0)" xlink:href="#bL"/><use transform="matrix(0.006510416666666664,0,0,0.006510416666666664,16.00260416666666,0)" xlink:href="#aY"/><use transform="matrix(0.006510416666666664,0,0,0.006510416666666664,24.003906249999993,0)" xlink:href="#cx"/><use transform="matrix(0.006510416666666664,0,0,0.006510416666666664,32.00520833333332,0)" xlink:href="#ct"/></g><g id="M"><use transform="matrix(0.006510416666666664,0,0,0.006510416666666664,0,0)" xlink:href="#cA"/><use transform="matrix(0.006510416666666664,0,0,0.006510416666666664,8.00130208333333,0)" xlink:href="#cy"/><use transform="matrix(0.006510416666666664,0,0,0.006510416666666664,16.00260416666666,0)" xlink:href="#ct"/><use transform="matrix(0.006510416666666664,0,0,0.006510416666666664,24.003906249999993,0)" xlink:href="#bK"/><use transform="matrix(0.006510416666666664,0,0,0.006510416666666664,32.00520833333332,0)" xlink:href="#bM"/><use transform="matrix(0.006510416666666664,0,0,0.006510416666666664,40.00651041666665,0)" xlink:href="#cn"/><use transform="matrix(0.006510416666666664,0,0,0.006510416666666664,48.00781249999998,0)" xlink:href="#cy"/><use transform="matrix(0.006510416666666664,0,0,0.006510416666666664,56.0091145833333,0)" xlink:href="#bM"/><use transform="matrix(0.006510416666666664,0,0,0.006510416666666664,64.01041666666664,0)" xlink:href="#cn"/><use transform="matrix(0.006510416666666664,0,0,0.006510416666666664,72.01171874999997,0)" xlink:href="#ct"/></g><g id="N"><use transform="matrix(0.006510416666666664,0,0,0.006510416666666664,0,0)" xlink:href="#aF"/><use transform="matrix(0.006510416666666664,0,0,0.006510416666666664,8.00130208333333,0)" xlink:href="#dc"/><use transform="matrix(0.006510416666666664,0,0,0.006510416666666664,16.00260416666666,0)" xlink:href="#bY"/><use transform="matrix(0.006510416666666664,0,0,0.006510416666666664,24.003906249999993,0)" xlink:href="#aF"/><use transform="matrix(0.006510416666666664,0,0,0.006510416666666664,32.00520833333332,0)" xlink:href="#cc"/></g><g id="O"><use transform="matrix(0.006510416666666664,0,0,0.006510416666666664,0,0)" xlink:href="#cx"/><use transform="matrix(0.006510416666666664,0,0,0.006510416666666664,8.00130208333333,0)" xlink:href="#bL"/><use transform="matrix(0.006510416666666664,0,0,0.006510416666666664,16.00260416666666,0)" xlink:href="#aY"/><use transform="matrix(0.006510416666666664,0,0,0.006510416666666664,24.003906249999993,0)" xlink:href="#cx"/><use transform="matrix(0.006510416666666664,0,0,0.006510416666666664,32.00520833333332,0)" xlink:href="#ct"/></g><path fill="#3a414a" d="M-5 220v-96h1238v96H-5" id="df"/><path fill="#3a414a" d="M530 26c-303-6-392-228-392-558 0-187 33-329 98-424s162-142 293-142c178 0 273 69 334 184 1-56 3-122 12-169h175c-6 88-6 180-6 282V425H863c1-202-4-411 4-607h-2C805-59 713 29 530 26zm47-139c234 0 286-193 286-441 0-238-55-411-284-411-223 0-255 198-255 427 0 227 33 425 253 425" id="dg"/><g id="P"><use transform="matrix(0.006510416666666664,0,0,0.006510416666666664,0,0)" xlink:href="#cx"/><use transform="matrix(0.006510416666666664,0,0,0.006510416666666664,8.00130208333333,0)" xlink:href="#bM"/><use transform="matrix(0.006510416666666664,0,0,0.006510416666666664,16.00260416666666,0)" xlink:href="#cn"/><use transform="matrix(0.006510416666666664,0,0,0.006510416666666664,24.003906249999993,0)" xlink:href="#co"/><use transform="matrix(0.006510416666666664,0,0,0.006510416666666664,32.00520833333332,0)" xlink:href="#df"/><use transform="matrix(0.006510416666666664,0,0,0.006510416666666664,40.00651041666665,0)" xlink:href="#cv"/><use transform="matrix(0.006510416666666664,0,0,0.006510416666666664,48.00781249999998,0)" xlink:href="#bO"/><use transform="matrix(0.006510416666666664,0,0,0.006510416666666664,56.0091145833333,0)" xlink:href="#dg"/><use transform="matrix(0.006510416666666664,0,0,0.006510416666666664,64.01041666666664,0)" xlink:href="#bM"/><use transform="matrix(0.006510416666666664,0,0,0.006510416666666664,72.01171874999997,0)" xlink:href="#bO"/><use transform="matrix(0.006510416666666664,0,0,0.006510416666666664,80.0130208333333,0)" xlink:href="#ct"/><use transform="matrix(0.006510416666666664,0,0,0.006510416666666664,88.01432291666663,0)" xlink:href="#cn"/></g><g id="Q"><use transform="matrix(0.006510416666666664,0,0,0.006510416666666664,0,0)" xlink:href="#cq"/><use transform="matrix(0.006510416666666664,0,0,0.006510416666666664,8.00130208333333,0)" xlink:href="#ct"/><use transform="matrix(0.006510416666666664,0,0,0.006510416666666664,16.00260416666666,0)" xlink:href="#bO"/><use transform="matrix(0.006510416666666664,0,0,0.006510416666666664,24.003906249999993,0)" xlink:href="#cu"/><use transform="matrix(0.006510416666666664,0,0,0.006510416666666664,32.00520833333332,0)" xlink:href="#bM"/><use transform="matrix(0.006510416666666664,0,0,0.006510416666666664,40.00651041666665,0)" xlink:href="#cv"/><use transform="matrix(0.006510416666666664,0,0,0.006510416666666664,48.00781249999998,0)" xlink:href="#bO"/><use transform="matrix(0.006510416666666664,0,0,0.006510416666666664,56.0091145833333,0)" xlink:href="#cl"/><use transform="matrix(0.006510416666666664,0,0,0.006510416666666664,64.01041666666664,0)" xlink:href="#cw"/><use transform="matrix(0.006510416666666664,0,0,0.006510416666666664,72.01171874999997,0)" xlink:href="#cx"/><use transform="matrix(0.006510416666666664,0,0,0.006510416666666664,80.0130208333333,0)" xlink:href="#cn"/><use transform="matrix(0.006510416666666664,0,0,0.006510416666666664,88.01432291666663,0)" xlink:href="#cx"/><use transform="matrix(0.006510416666666664,0,0,0.006510416666666664,96.01562499999996,0)" xlink:href="#cl"/><use transform="matrix(0.006510416666666664,0,0,0.006510416666666664,104.01692708333329,0)" xlink:href="#cy"/><use transform="matrix(0.006510416666666664,0,0,0.006510416666666664,112.0182291666666,0)" xlink:href="#cv"/><use transform="matrix(0.006510416666666664,0,0,0.006510416666666664,120.01953124999993,0)" xlink:href="#bK"/><use transform="matrix(0.006510416666666664,0,0,0.006510416666666664,128.0208333333333,0)" xlink:href="#aZ"/><use transform="matrix(0.006510416666666664,0,0,0.006510416666666664,136.02213541666663,0)" xlink:href="#cz"/></g><path fill="#333" d="M238-95c0 69-44 99-111 99C63 4 22-25 22-93v-155h51v151c-1 38 19 59 55 60 90 1 49-130 58-211h52v153" id="dh"/><g id="R"><use transform="matrix(0.04938271604938272,0,0,0.04938271604938272,0,0)" xlink:href="#dh"/><use transform="matrix(0.04938271604938272,0,0,0.04938271604938272,12.790123456790125,0)" xlink:href="#bI"/><use transform="matrix(0.04938271604938272,0,0,0.04938271604938272,22.66666666666667,0)" xlink:href="#bT"/><use transform="matrix(0.04938271604938272,0,0,0.04938271604938272,32.543209876543216,0)" xlink:href="#bU"/></g><path fill="#333" d="M199 0l-22-63H83L61 0H9l90-248h61L250 0h-51zm-33-102l-36-108c-10 38-24 72-36 108h72" id="di"/><path fill="#333" d="M231 0h-52l-39-155L100 0H48L-1-190h46L77-45c9-52 24-97 36-145h53l37 145 32-145h46" id="dj"/><path fill="#333" d="M110-251c83-7 118 89 53 130-17 10-36 21-38 46H78c2-56 65-53 71-103 2-21-15-35-38-34-25 1-41 14-44 38l-50-2c6-48 39-70 93-75zM77 0v-47h51V0H77" id="dk"/><g id="S"><use transform="matrix(0.04938271604938272,0,0,0.04938271604938272,0,0)" xlink:href="#di"/><use transform="matrix(0.04938271604938272,0,0,0.04938271604938272,12.790123456790125,0)" xlink:href="#bH"/><use transform="matrix(0.04938271604938272,0,0,0.04938271604938272,17.7283950617284,0)" xlink:href="#bH"/><use transform="matrix(0.04938271604938272,0,0,0.04938271604938272,22.66666666666667,0)" xlink:href="#bQ"/><use transform="matrix(0.04938271604938272,0,0,0.04938271604938272,33.48148148148149,0)" xlink:href="#dj"/><use transform="matrix(0.04938271604938272,0,0,0.04938271604938272,47.308641975308646,0)" xlink:href="#bT"/><use transform="matrix(0.04938271604938272,0,0,0.04938271604938272,57.18518518518519,0)" xlink:href="#bP"/><use transform="matrix(0.04938271604938272,0,0,0.04938271604938272,68,0)" xlink:href="#dk"/></g><path fill="#3a414a" d="M106-169C34-169 62-67 57 0H25v-261h32l-1 103c12-21 28-36 61-36 89 0 53 116 60 194h-32v-121c2-32-8-49-39-48" id="dl"/><path fill="#3a414a" d="M-5 72V49h209v23H-5" id="dm"/><path fill="#3a414a" d="M145-31C134-9 116 4 85 4 32 4 16-35 15-94c0-59 17-99 70-100 32-1 48 14 60 33 0-11-1-24 2-32h30l-1 268h-32zM93-21c41 0 51-33 51-76s-8-73-50-73c-40 0-46 35-46 75s5 74 45 74" id="dn"/><path fill="#3a414a" d="M135-143c-3-34-86-38-87 0 15 53 115 12 119 90S17 21 10-45l28-5c4 36 97 45 98 0-10-56-113-15-118-90-4-57 82-63 122-42 12 7 21 19 24 35" id="do"/><g id="T"><use transform="matrix(0.04938271604938272,0,0,0.04938271604938272,0,0)" xlink:href="#Z"/><use transform="matrix(0.04938271604938272,0,0,0.04938271604938272,9.876543209876544,0)" xlink:href="#az"/><use transform="matrix(0.04938271604938272,0,0,0.04938271604938272,19.75308641975309,0)" xlink:href="#aa"/><use transform="matrix(0.04938271604938272,0,0,0.04938271604938272,24.69135802469136,0)" xlink:href="#dl"/><use transform="matrix(0.04938271604938272,0,0,0.04938271604938272,34.567901234567906,0)" xlink:href="#dm"/><use transform="matrix(0.04938271604938272,0,0,0.04938271604938272,44.44444444444445,0)" xlink:href="#ac"/><use transform="matrix(0.04938271604938272,0,0,0.04938271604938272,50.320987654320994,0)" xlink:href="#ah"/><use transform="matrix(0.04938271604938272,0,0,0.04938271604938272,60.19753086419754,0)" xlink:href="#dn"/><use transform="matrix(0.04938271604938272,0,0,0.04938271604938272,70.07407407407408,0)" xlink:href="#az"/><use transform="matrix(0.04938271604938272,0,0,0.04938271604938272,79.95061728395062,0)" xlink:href="#ah"/><use transform="matrix(0.04938271604938272,0,0,0.04938271604938272,89.82716049382717,0)" xlink:href="#do"/><use transform="matrix(0.04938271604938272,0,0,0.04938271604938272,98.71604938271605,0)" xlink:href="#aa"/></g><g id="U"><use transform="matrix(0.04938271604938272,0,0,0.04938271604938272,0,0)" xlink:href="#di"/><use transform="matrix(0.04938271604938272,0,0,0.04938271604938272,12.790123456790125,0)" xlink:href="#bH"/><use transform="matrix(0.04938271604938272,0,0,0.04938271604938272,17.7283950617284,0)" xlink:href="#bH"/><use transform="matrix(0.04938271604938272,0,0,0.04938271604938272,22.66666666666667,0)" xlink:href="#bQ"/><use transform="matrix(0.04938271604938272,0,0,0.04938271604938272,33.48148148148149,0)" xlink:href="#dj"/><use transform="matrix(0.04938271604938272,0,0,0.04938271604938272,47.308641975308646,0)" xlink:href="#bT"/><use transform="matrix(0.04938271604938272,0,0,0.04938271604938272,57.18518518518519,0)" xlink:href="#bP"/></g><path fill="#333" d="M17-49c1-102 45-165 103-212h30C92-210 49-145 49-46 49 4 63 43 85 75H54C30 43 18 2 17-49" id="dp"/><path fill="#333" d="M66-151c12-25 30-51 66-40l-6 26C45-176 58-65 38 0H6l36-190h30" id="dq"/><path fill="#333" d="M111-194c62-3 86 47 72 106H45c-7 38 6 69 45 68 27-1 43-14 53-32l24 11C152-15 129 4 87 4 38 3 12-23 12-71c0-70 32-119 99-123zm44 81c14-66-71-72-95-28-4 8-8 17-11 28h106" id="dr"/><path fill="#333" d="M55-144c13 50 104 24 104 88C159 21 15 23 1-39l26-10c6 40 102 42 102-4-13-50-104-23-104-87 0-71 143-71 148-8l-29 4c-5-35-85-37-89 0" id="ds"/><path fill="#333" d="M67 3c-93-2-31-127-26-193h32L48-50c-3 39 53 32 70 12 30-34 30-101 43-152h32L157 0h-30c1-10 6-24 4-33-14 20-29 37-64 36" id="dt"/><path fill="#333" d="M248-111c6-24 9-61-24-58-72 9-57 108-77 169h-31l26-142c3-37-50-30-64-10C52-115 50-51 37 0H6l36-190h30c-1 10-6 24-4 32 13-43 101-52 105 5 13-22 29-41 61-41 90 0 28 129 23 194h-31" id="du"/><g id="V"><use transform="matrix(0.04938271604938272,0,0,0.04938271604938272,0,0)" xlink:href="#dp"/><use transform="matrix(0.04938271604938272,0,0,0.04938271604938272,5.8765432098765435,0)" xlink:href="#dq"/><use transform="matrix(0.04938271604938272,0,0,0.04938271604938272,11.753086419753087,0)" xlink:href="#dr"/><use transform="matrix(0.04938271604938272,0,0,0.04938271604938272,21.629629629629633,0)" xlink:href="#ds"/><use transform="matrix(0.04938271604938272,0,0,0.04938271604938272,30.518518518518523,0)" xlink:href="#dt"/><use transform="matrix(0.04938271604938272,0,0,0.04938271604938272,40.39506172839506,0)" xlink:href="#du"/><use transform="matrix(0.04938271604938272,0,0,0.04938271604938272,55.1604938271605,0)" xlink:href="#dr"/></g><path fill="#333" d="M67-158c22-48 132-52 116 29L158 0h-32l25-140c3-38-53-32-70-12C52-117 51-52 38 0H6l36-190h30" id="dv"/><path fill="#333" d="M103-194c29 0 47 14 56 36 2-11 5-23 8-32h30L160-5C157 61 82 97 21 62 9 55 4 45 1 30l28-7c7 42 83 31 92-3 4-16 9-38 13-55-13 20-29 36-62 36-40 0-60-25-60-64 0-71 23-131 91-131zm4 24c-53 0-58 54-61 104-2 27 10 44 36 44 49 0 65-50 67-102 1-29-15-46-42-46" id="dw"/><path fill="#333" d="M50-231l6-30h32l-6 30H50zM6 0l37-190h31L37 0H6" id="dx"/><path fill="#333" d="M124 0L87-78 21 0h-35l86-98-46-92h33l34 74 61-74h37l-83 92 50 98h-34" id="dy"/><g id="W"><use transform="matrix(0.04938271604938272,0,0,0.04938271604938272,0,0)" xlink:href="#dv"/><use transform="matrix(0.04938271604938272,0,0,0.04938271604938272,9.876543209876544,0)" xlink:href="#dw"/><use transform="matrix(0.04938271604938272,0,0,0.04938271604938272,19.75308641975309,0)" xlink:href="#dx"/><use transform="matrix(0.04938271604938272,0,0,0.04938271604938272,23.654320987654323,0)" xlink:href="#dv"/><use transform="matrix(0.04938271604938272,0,0,0.04938271604938272,33.53086419753087,0)" xlink:href="#dy"/></g><path fill="#333" d="M165-48c-4 18 1 34 23 27l-3 20c-29 8-62 0-52-35h-2C116-14 99 4 63 4 30 4 8-16 8-49c0-68 71-67 138-67 10-26 0-56-31-54-26 1-42 9-47 31l-32-5c8-67 160-71 144 15-5 28-9 54-15 81zM42-50c3 52 80 24 89-6 7-12 7-24 11-38-47 1-103-4-100 44" id="dz"/><path fill="#333" d="M6 0l50-261h32L37 0H6" id="dA"/><path fill="#333" d="M98-137C97-35 54 29-4 75h-31C23 23 67-41 67-140c0-50-15-89-37-121h31c24 32 36 73 37 124" id="dB"/><g id="X"><use transform="matrix(0.04938271604938272,0,0,0.04938271604938272,0,0)" xlink:href="#dz"/><use transform="matrix(0.04938271604938272,0,0,0.04938271604938272,9.876543209876544,0)" xlink:href="#dA"/><use transform="matrix(0.04938271604938272,0,0,0.04938271604938272,13.777777777777779,0)" xlink:href="#dx"/><use transform="matrix(0.04938271604938272,0,0,0.04938271604938272,17.679012345679013,0)" xlink:href="#dz"/><use transform="matrix(0.04938271604938272,0,0,0.04938271604938272,27.555555555555557,0)" xlink:href="#ds"/><use transform="matrix(0.04938271604938272,0,0,0.04938271604938272,36.44444444444444,0)" xlink:href="#dB"/></g></defs></g></svg>